<?xml version="1.0" standalone="no"?>
<!DOCTYPE svg PUBLIC "-//W3C//DTD SVG 20010904//EN"
 "http://www.w3.org/TR/2001/REC-SVG-20010904/DTD/svg10.dtd">
<svg version="1.0" xmlns="http://www.w3.org/2000/svg"
 width="300.000000pt" height="375.000000pt" viewBox="0 0 300.000000 375.000000"
 preserveAspectRatio="xMidYMid meet">
<metadata>
Created by potrace 1.10, written by Peter Selinger 2001-2011
</metadata>
<g transform="translate(0.000000,375.000000) scale(0.100000,-0.100000)"
fill="#000000" stroke="none">
<path d="M227 3730 c-14 -11 -33 -20 -42 -20 -9 0 -23 -7 -31 -15 -13 -13 -11
-14 18 -8 18 3 38 12 43 18 6 7 21 19 35 29 13 9 20 16 14 16 -6 0 -23 -9 -37
-20z"/>
<path d="M457 3744 c-9 -9 17 -56 45 -79 59 -50 58 -49 45 -16 -6 16 -14 28
-19 25 -9 -6 -42 27 -46 47 -5 19 -17 31 -25 23z"/>
<path d="M905 3728 c10 -33 15 -36 63 -44 l44 -7 -29 29 c-15 16 -33 27 -40
26 -6 -1 -14 2 -18 8 -12 19 -26 10 -20 -12z"/>
<path d="M1057 3717 c14 -28 14 -31 -3 -44 -10 -7 -21 -13 -26 -13 -4 0 -8 -4
-8 -10 0 -5 9 -10 21 -10 11 0 17 5 14 10 -3 6 3 10 14 10 23 0 47 35 31 45
-5 3 -10 14 -10 24 0 13 -7 19 -25 19 -24 0 -24 -1 -8 -31z"/>
<path d="M2130 3746 c0 -3 7 -12 17 -21 15 -16 15 -17 -3 -14 -10 2 -29 -2
-41 -9 -12 -7 -29 -9 -37 -6 -11 4 -16 1 -16 -11 0 -9 -4 -13 -10 -10 -5 3
-10 2 -10 -4 0 -18 21 -23 38 -9 9 8 31 20 48 27 27 10 37 10 61 -3 28 -14 31
-13 47 6 18 20 18 21 -7 16 -19 -4 -28 1 -36 19 -6 13 -19 23 -31 23 -11 0
-20 -2 -20 -4z"/>
<path d="M2563 3735 c9 -8 22 -12 30 -9 14 5 35 -18 35 -39 1 -20 12 -18 12 1
0 12 5 22 10 22 6 0 2 8 -7 18 -10 9 -35 18 -57 20 -34 2 -36 1 -23 -13z"/>
<path d="M1314 3729 c-3 -5 -10 -7 -15 -4 -5 4 -9 2 -9 -4 0 -17 54 -27 111
-22 5 1 7 6 4 11 -4 6 -15 8 -26 5 -10 -4 -19 -2 -19 3 0 13 -39 22 -46 11z"/>
<path d="M700 3723 c0 -13 20 -39 20 -27 0 6 10 16 23 22 21 10 20 11 -10 11
-18 1 -33 -2 -33 -6z"/>
<path d="M349 3713 c-1 -5 -1 -12 0 -16 2 -11 -25 -37 -38 -37 -6 0 -11 -7
-11 -16 0 -14 1 -14 16 0 8 9 22 16 30 16 9 0 14 11 14 30 0 26 -8 43 -11 23z"/>
<path d="M620 3710 c0 -5 14 -31 30 -57 37 -57 39 -50 5 17 -25 48 -35 60 -35
40z"/>
<path d="M1570 3706 c0 -15 29 -44 31 -30 1 5 4 -1 7 -14 10 -35 26 -27 29 15
1 21 -1 33 -5 28 -11 -16 -32 -16 -38 0 -8 19 -24 20 -24 1z"/>
<path d="M1520 3701 c0 -5 6 -14 13 -18 7 -4 18 -21 25 -37 7 -16 15 -26 19
-23 8 8 -30 80 -45 85 -7 2 -12 -1 -12 -7z"/>
<path d="M1955 3703 c17 -13 10 -52 -14 -77 -22 -23 -28 -46 -12 -46 5 0 13
10 17 23 4 12 18 35 31 51 28 34 26 48 -8 53 -13 2 -19 0 -14 -4z"/>
<path d="M2293 3686 c3 -8 -3 -22 -14 -32 -12 -11 -16 -21 -10 -28 10 -12 11
-15 11 -51 0 -19 5 -25 23 -25 21 1 22 1 3 15 -11 8 -14 15 -8 15 7 0 12 5 12
11 0 5 -4 7 -10 4 -6 -3 -10 5 -10 19 0 35 10 56 26 56 8 0 14 7 14 15 0 9 -9
15 -21 15 -14 0 -19 -5 -16 -14z"/>
<path d="M2431 3666 c7 -14 18 -26 25 -26 8 0 11 -7 8 -17 -5 -15 -4 -15 4 -3
6 8 9 17 6 21 -2 4 3 9 11 13 8 3 15 11 15 17 0 8 -4 8 -14 0 -12 -10 -20 -9
-41 5 l-26 17 12 -27z"/>
<path d="M1273 3663 c28 -14 38 -37 12 -27 -8 4 -15 1 -15 -6 0 -8 -15 -11
-45 -8 -31 2 -44 0 -41 -8 3 -7 -5 -15 -17 -19 -14 -4 -17 -8 -9 -12 18 -7 15
-28 -9 -54 l-20 -24 4 27 c2 17 0 25 -6 21 -6 -4 -8 2 -5 15 7 25 -7 30 -16 6
-10 -25 -7 -115 5 -157 6 -22 8 -46 4 -55 -5 -14 -8 -12 -20 8 -8 14 -18 33
-21 43 -3 9 -14 17 -24 17 -20 0 -67 -44 -75 -71 -7 -20 -7 -20 -43 -24 -17
-2 -20 1 -12 11 9 10 6 11 -10 7 -11 -3 -20 -2 -19 3 1 5 1 17 0 28 -1 14 -4
16 -14 7 -8 -6 -12 -23 -9 -40 3 -25 0 -31 -21 -36 -14 -4 -36 -1 -49 6 -21
11 -22 11 -9 -4 7 -10 19 -17 26 -17 8 0 10 -9 7 -26 -5 -27 -5 -27 15 -7 11
11 23 27 26 37 5 13 17 17 56 15 l50 -3 -15 -28 c-11 -21 -21 -28 -37 -26 -15
2 -21 -2 -19 -11 2 -8 -1 -17 -5 -20 -5 -3 -22 -25 -39 -48 -17 -24 -34 -40
-37 -36 -4 3 -9 -2 -13 -11 -3 -9 -10 -14 -14 -11 -9 6 -23 -25 -15 -33 3 -3
5 0 5 7 0 7 5 9 10 6 6 -3 10 -1 10 4 0 6 7 11 15 11 20 0 76 -35 68 -43 -10
-10 10 -8 27 3 8 5 10 10 4 10 -6 0 -20 8 -32 18 -16 14 -18 22 -10 30 9 9 8
12 -6 12 -12 0 -3 13 29 40 51 44 52 44 89 30 21 -8 26 -16 27 -47 0 -33 1
-35 9 -15 10 24 22 30 18 10 -2 -7 3 -12 10 -10 6 1 12 -5 12 -15 0 -9 3 -13
7 -10 9 10 35 -31 28 -43 -3 -6 -2 -10 3 -10 11 0 28 158 18 167 -3 4 -6 -4
-6 -16 0 -12 -4 -20 -9 -17 -5 4 -11 1 -13 -6 -6 -16 -28 0 -28 20 0 13 2 14
9 4 6 -11 10 -10 15 4 3 9 4 19 1 22 -3 3 -5 -1 -5 -8 0 -7 -3 -11 -6 -7 -3 3
-17 2 -31 -4 -32 -12 -71 -2 -78 21 -6 18 41 100 57 100 5 0 6 9 3 20 -3 11
-2 20 4 20 17 0 42 -32 37 -47 -3 -8 -2 -12 3 -9 13 8 21 -20 10 -31 -13 -13
-20 -55 -8 -48 5 4 7 11 4 16 -4 5 -1 9 4 9 6 0 10 3 9 8 0 4 3 16 7 27 8 17
11 13 21 -25 l12 -45 1 36 c1 54 31 199 46 228 32 63 103 93 213 93 85 0 10
52 -87 61 -52 4 -53 4 -28 -10z m-173 -514 c0 -17 -2 -18 -12 -7 -26 27 -57
76 -52 81 9 9 64 -55 64 -74z"/>
<path d="M1136 3661 c-3 -4 -10 -21 -16 -37 l-11 -29 28 25 c15 14 29 25 29
25 1 0 -4 6 -11 12 -8 7 -16 9 -19 4z"/>
<path d="M1460 3661 c-8 -6 -18 -7 -22 -5 -16 10 -8 -23 10 -38 25 -22 81 -39
107 -32 13 3 26 1 29 -5 4 -6 18 -11 32 -11 20 0 24 -5 24 -30 0 -26 3 -29 25
-28 14 1 25 6 25 10 0 9 -63 68 -72 68 -5 0 -8 8 -8 18 0 10 -3 13 -8 7 -8
-12 -22 -13 -39 -2 -6 4 -15 2 -19 -4 -4 -7 -9 -8 -13 -1 -3 6 -20 12 -36 14
-38 4 -49 18 -27 35 20 14 14 17 -8 4z"/>
<path d="M1667 3663 c-12 -11 -7 -50 7 -62 11 -10 15 -8 18 6 8 40 -7 74 -25
56z"/>
<path d="M1795 3660 c10 -16 16 -60 10 -70 -3 -6 -16 -5 -31 0 -19 8 -31 6
-47 -5 -21 -14 -20 -15 18 -15 58 0 70 -11 57 -49 -7 -19 -7 -33 -1 -36 5 -4
6 -12 3 -18 -5 -9 -4 -9 5 -1 16 15 32 84 19 84 -5 0 -7 4 -3 9 3 5 1 12 -4
16 -6 3 -8 12 -4 21 4 11 8 12 19 3 13 -10 13 -8 4 17 -9 23 -9 26 1 17 8 -8
18 -9 30 -2 13 7 20 5 28 -8 9 -16 10 -16 11 5 0 12 -5 22 -11 22 -5 0 -7 5
-4 10 3 6 1 10 -4 10 -6 0 -11 -4 -11 -9 0 -17 -33 -21 -56 -6 -27 17 -38 19
-29 5z"/>
<path d="M2344 3644 c3 -9 6 -22 6 -30 0 -8 6 -14 14 -14 9 0 12 7 9 20 -3 11
-10 20 -15 20 -5 0 -6 5 -3 10 3 6 1 10 -5 10 -7 0 -9 -7 -6 -16z"/>
<path d="M2000 3641 c0 -12 29 -23 41 -15 5 3 7 10 4 15 -8 12 -45 12 -45 0z"/>
<path d="M826 3615 c4 -15 1 -32 -7 -42 -11 -13 -8 -13 13 2 31 23 34 31 14
51 -21 21 -27 17 -20 -11z"/>
<path d="M2160 3614 c0 -7 -6 -15 -12 -18 -7 -3 -3 -3 10 0 12 3 22 1 22 -5 0
-6 -6 -11 -12 -11 -20 0 14 -20 35 -20 9 0 17 5 17 10 0 6 -7 10 -15 10 -8 0
-15 5 -15 10 0 6 5 10 11 10 6 0 9 6 7 13 -6 16 -48 18 -48 1z"/>
<path d="M570 3612 c0 -5 8 -17 18 -28 9 -10 17 -34 17 -51 0 -18 3 -33 8 -33
4 0 7 -5 7 -11 0 -6 9 -22 20 -36 26 -33 25 -23 -1 23 -13 23 -17 39 -10 43 6
4 5 15 -4 31 -8 14 -20 35 -26 48 -12 21 -29 30 -29 14z"/>
<path d="M990 3604 c0 -4 9 -15 21 -25 11 -9 20 -20 20 -23 -2 -18 0 -24 13
-29 21 -8 17 38 -6 62 -18 20 -48 29 -48 15z"/>
<path d="M2620 3584 c0 -7 16 -14 35 -16 24 -3 35 0 35 9 0 7 -3 13 -7 14 -46
5 -63 3 -63 -7z"/>
<path d="M250 3582 c0 -5 9 -17 19 -26 16 -14 18 -23 10 -43 -13 -35 -11 -50
7 -57 14 -5 15 -4 5 8 -9 11 -10 20 -1 35 14 26 4 64 -21 79 -10 7 -19 8 -19
4z"/>
<path d="M1960 3575 c-7 -8 -16 -12 -21 -9 -5 3 -9 -2 -9 -10 0 -20 9 -20 50
0 24 12 29 19 19 25 -19 12 -25 11 -39 -6z"/>
<path d="M2456 3574 c-8 -20 -8 -24 2 -22 16 4 52 -14 52 -28 0 -8 4 -22 9
-32 5 -9 12 -25 15 -34 3 -10 13 -18 23 -18 17 1 17 1 1 14 -12 9 -14 16 -7
23 8 8 7 13 0 17 -6 4 -11 12 -11 17 0 6 5 7 10 4 6 -3 10 1 10 10 0 9 5 13
10 10 6 -4 7 -11 4 -17 -4 -7 -2 -8 4 -4 23 14 1 35 -29 29 -18 -3 -29 -1 -29
6 0 6 -7 11 -15 11 -9 0 -18 7 -21 15 -8 19 -20 19 -28 -1z"/>
<path d="M150 3558 c0 -16 5 -28 10 -28 6 0 20 -16 32 -36 15 -26 23 -32 29
-22 5 8 -3 23 -24 42 -18 16 -30 30 -28 30 3 1 0 10 -7 21 -11 19 -11 18 -12
-7z"/>
<path d="M2008 3545 c-6 -13 -15 -22 -19 -19 -5 3 -9 0 -9 -5 0 -6 -6 -11 -14
-11 -28 0 -44 -65 -18 -75 19 -7 34 14 26 38 -3 9 0 17 6 17 6 0 16 11 22 25
9 19 14 22 25 14 10 -9 13 -6 13 15 0 33 -17 34 -32 1z"/>
<path d="M880 3533 c-8 -15 -16 -31 -18 -35 -2 -5 6 -8 17 -8 13 0 26 12 37
31 9 19 11 28 4 24 -7 -4 -15 -2 -19 4 -5 7 -13 2 -21 -16z"/>
<path d="M655 3539 c-11 -17 1 -21 36 -14 27 6 30 9 15 17 -12 7 -22 5 -33 -4
-12 -9 -15 -9 -9 0 4 6 5 12 2 12 -3 0 -8 -5 -11 -11z"/>
<path d="M827 3533 c-16 -56 -17 -79 -7 -104 13 -31 50 -47 50 -21 0 8 -3 12
-7 9 -3 -4 -12 -2 -20 4 -15 13 -18 55 -4 64 5 3 7 18 5 32 -7 35 -11 39 -17
16z"/>
<path d="M959 3517 c-16 -23 -15 -57 3 -57 6 0 8 9 5 20 -3 11 -2 20 2 20 4 0
7 9 8 20 2 25 2 25 -18 -3z"/>
<path d="M766 3480 c4 -30 8 -57 10 -59 9 -10 3 86 -6 99 -7 10 -8 -2 -4 -40z"/>
<path d="M2730 3515 c-7 -9 -21 -13 -31 -10 -14 5 -17 2 -13 -9 9 -23 29 -19
48 9 18 28 16 34 -4 10z"/>
<path d="M692 3466 c-1 -30 2 -57 8 -61 6 -4 10 16 10 54 0 76 -15 81 -18 7z"/>
<path d="M2091 3506 c-7 -8 -10 -19 -7 -25 7 -11 -14 -20 -31 -13 -7 2 -10 9
-6 16 3 6 -3 2 -14 -9 -11 -11 -19 -23 -16 -27 5 -9 -44 -41 -54 -35 -4 3 -13
-1 -20 -8 -9 -10 -8 -14 8 -18 10 -3 17 -1 13 4 -3 5 0 10 5 10 6 1 16 3 21 4
6 1 14 3 18 4 5 0 20 10 33 21 16 15 34 20 58 18 29 -3 39 -11 54 -39 10 -20
33 -44 50 -54 28 -17 29 -19 11 -26 -16 -6 -16 -8 -2 -8 10 -1 25 10 34 24 15
23 18 24 42 10 15 -8 38 -23 51 -32 23 -17 23 -16 18 2 -8 24 7 50 22 41 6 -4
11 -3 11 2 0 17 35 8 60 -15 24 -23 40 -29 40 -17 0 4 -12 17 -26 30 -14 13
-23 28 -19 33 3 5 1 12 -4 15 -5 3 -12 29 -16 56 -4 28 -10 50 -15 50 -11 0
-21 -28 -11 -32 5 -2 10 -24 13 -50 4 -35 2 -48 -7 -48 -7 0 -16 7 -19 16 -3
8 -11 12 -16 9 -8 -5 -7 -11 1 -21 7 -9 8 -14 3 -13 -5 1 -11 0 -14 -1 -11 -4
-127 -6 -147 -2 -13 2 -23 10 -23 18 0 8 -4 14 -10 14 -5 0 -9 3 -8 8 4 18
-16 42 -36 42 -21 1 -21 1 -2 15 17 13 14 17 -11 14 -4 0 -10 7 -13 16 -5 15
-7 15 -19 1z"/>
<path d="M1635 3490 c-18 -28 -8 -96 21 -145 27 -46 29 -57 29 -150 0 -55 -4
-109 -9 -119 -8 -17 -6 -18 14 -13 17 4 20 3 11 -6 -6 -6 -11 -20 -12 -31 0
-12 -3 -15 -6 -8 -2 6 -11 12 -19 12 -9 0 -13 -4 -9 -9 3 -5 -2 -16 -10 -24
-8 -9 -15 -24 -15 -34 1 -17 1 -17 11 0 7 12 17 16 32 11 22 -6 22 -6 2 10
-20 15 -19 15 5 11 30 -6 40 9 40 58 0 31 4 39 25 47 14 5 25 11 25 13 0 16
-24 67 -31 67 -12 0 -11 -27 1 -35 15 -9 12 -35 -4 -35 -16 0 -26 53 -19 93 3
15 19 39 35 52 28 24 29 27 14 44 -9 10 -16 25 -16 34 0 9 -5 19 -11 22 -16
11 -6 -48 11 -62 13 -11 13 -12 0 -12 -22 1 -59 17 -40 19 12 0 11 3 -3 14
-17 13 -43 87 -52 150 -5 34 -11 41 -20 26z"/>
<path d="M570 3465 c-1 -11 -3 -29 -5 -40 -4 -20 20 -63 30 -53 3 3 -1 29 -9
59 -8 30 -15 45 -16 34z"/>
<path d="M2760 3440 c-10 -6 -11 -10 -2 -10 6 0 21 -9 32 -20 11 -11 20 -16
20 -11 0 5 14 11 31 15 28 5 30 8 18 23 -13 15 -14 15 -17 -1 -2 -10 -10 -15
-17 -12 -8 3 -16 0 -19 -7 -3 -9 -5 -9 -5 1 -1 6 -9 12 -18 12 -15 0 -16 2 -3
10 8 5 11 10 5 10 -5 0 -17 -5 -25 -10z"/>
<path d="M1789 3428 c0 -7 -2 -26 -4 -43 l-4 -30 14 25 c17 29 19 60 5 60 -5
0 -10 -6 -11 -12z"/>
<path d="M250 3397 c0 -2 7 -23 15 -46 13 -37 13 -43 0 -47 -8 -4 -15 -10 -15
-15 0 -5 9 -4 20 3 11 7 20 19 20 26 0 7 5 10 10 7 6 -3 10 -1 10 5 0 6 -7 13
-15 16 -8 4 -15 12 -15 19 0 7 -7 18 -15 25 -8 7 -15 10 -15 7z"/>
<path d="M2716 3381 c-10 -11 -31 -23 -48 -26 -44 -10 -26 -18 21 -10 23 4 39
11 35 16 -3 5 4 9 15 9 12 0 21 5 21 11 0 5 -4 8 -9 5 -5 -4 -11 -1 -13 5 -2
6 -11 2 -22 -10z"/>
<path d="M1425 3370 c-16 -4 -43 -14 -58 -22 -41 -23 -10 -30 50 -12 53 16
113 11 151 -14 44 -28 33 -4 -12 27 -45 31 -74 36 -131 21z"/>
<path d="M1176 3349 c-34 -27 -30 -31 18 -18 47 13 97 4 89 -17 -3 -8 -12 -13
-20 -10 -8 3 -11 1 -8 -4 8 -13 3 -13 -30 0 -19 7 -24 7 -19 -2 5 -7 2 -9 -9
-5 -16 6 -29 -6 -40 -35 -9 -24 8 -23 32 3 13 14 21 17 26 9 4 -7 17 -9 30 -6
13 3 26 2 29 -2 3 -5 -17 -14 -44 -21 -63 -16 -75 -33 -22 -30 54 4 87 34 94
87 7 48 -1 57 -58 66 -33 5 -47 2 -68 -15z"/>
<path d="M1820 3333 c-16 -19 -24 -53 -12 -53 4 0 12 10 17 23 6 13 17 21 29
19 11 -2 17 1 14 10 -7 19 -31 20 -48 1z"/>
<path d="M2107 3328 c-4 -12 -4 -24 -2 -27 3 -2 5 1 5 7 0 7 9 12 20 12 24 0
27 15 4 24 -22 8 -21 9 -27 -16z"/>
<path d="M2568 3338 c-7 -19 2 -39 14 -32 6 4 5 10 -3 15 -10 6 -8 9 8 9 12 0
25 5 28 10 3 6 -5 10 -18 10 -14 0 -27 -6 -29 -12z"/>
<path d="M2972 3339 c-13 -5 -27 -7 -32 -4 -8 5 -3 -55 5 -63 3 -3 5 7 5 21 0
16 6 27 14 27 7 0 19 7 26 15 14 17 14 17 -18 4z"/>
<path d="M1900 3324 c0 -18 16 -30 38 -30 12 0 22 4 22 9 0 4 21 -8 46 -28 53
-40 84 -46 81 -15 -1 22 -32 28 -41 8 -3 -9 -8 -8 -16 5 -6 9 -18 17 -26 17
-8 0 -17 6 -20 14 -3 8 -15 14 -27 13 -12 0 -30 3 -39 7 -10 5 -18 4 -18 0z"/>
<path d="M2747 3309 c6 -6 9 -18 6 -25 -6 -15 12 -19 21 -5 10 15 -5 41 -22
41 -12 0 -13 -3 -5 -11z"/>
<path d="M1424 3299 c-3 -5 -14 -7 -23 -4 -11 3 -18 0 -18 -9 0 -8 6 -12 14
-9 7 3 13 -1 13 -9 0 -27 35 -48 78 -48 49 0 58 20 10 21 -18 1 -44 4 -57 8
-21 6 -22 8 -7 20 8 7 13 18 10 25 -3 6 3 0 15 -14 17 -22 23 -23 40 -13 13 8
22 9 26 3 8 -13 65 -13 65 1 0 5 -4 8 -9 5 -4 -3 -16 3 -26 14 -10 11 -23 20
-28 20 -6 0 -2 -7 9 -15 21 -16 12 -20 -14 -6 -28 14 -91 20 -98 10z"/>
<path d="M2131 3295 c0 -12 5 -27 11 -33 10 -10 10 -15 -2 -23 -12 -9 -12 -10
3 -5 15 5 16 2 7 -14 -14 -26 -13 -30 9 -30 29 0 32 13 11 48 -14 22 -16 32
-7 36 7 2 5 5 -5 5 -9 1 -19 9 -21 19 -4 14 -5 13 -6 -3z"/>
<path d="M2220 3294 c0 -8 5 -24 11 -35 23 -44 19 -59 -18 -74 -29 -12 -34
-18 -25 -27 10 -10 7 -16 -10 -30 -17 -13 -19 -18 -7 -18 21 0 72 57 56 64 -7
2 -4 5 6 5 9 1 17 6 17 12 0 5 4 8 9 4 6 -3 9 7 8 21 -2 32 12 40 38 19 19
-14 19 -16 3 -28 -12 -10 -14 -17 -7 -28 9 -12 11 -12 16 0 3 7 14 22 24 32
11 11 16 19 13 19 -4 0 0 8 7 18 13 15 12 16 -4 3 -15 -12 -20 -11 -36 8 -10
11 -26 21 -35 21 -10 0 -14 5 -10 11 4 8 0 9 -15 4 -12 -4 -21 -2 -21 4 0 6
-4 11 -10 11 -5 0 -10 -7 -10 -16z"/>
<path d="M730 3291 c0 -5 9 -11 21 -14 17 -5 19 -10 13 -43 -5 -26 -4 -35 5
-30 19 12 13 74 -8 86 -24 12 -31 13 -31 1z"/>
<path d="M2500 3278 c0 -28 -2 -32 -18 -44 -17 -12 -8 -54 12 -54 18 0 40 27
27 34 -5 3 -7 15 -4 25 3 11 0 28 -6 38 -10 17 -10 17 -11 1z"/>
<path d="M2688 3279 c-10 -5 -18 -16 -18 -24 0 -11 5 -11 30 1 30 16 40 34 18
34 -7 0 -21 -5 -30 -11z"/>
<path d="M679 3243 c-13 -14 -19 -23 -12 -19 15 8 27 -10 13 -19 -8 -5 -8 -11
0 -20 14 -17 -3 -80 -32 -116 -19 -24 -20 -24 -15 -1 3 12 2 22 -3 22 -8 0
-21 -52 -15 -58 9 -9 54 36 80 80 16 26 35 48 43 48 7 0 10 5 7 10 -4 6 -14 9
-23 8 -14 -3 -17 5 -15 45 1 26 1 47 -1 47 -1 0 -13 -12 -27 -27z"/>
<path d="M1795 3254 c5 -11 11 -53 13 -95 3 -68 5 -76 22 -72 10 3 21 0 25 -7
9 -14 -65 -81 -82 -75 -7 2 -13 -3 -13 -13 0 -13 -2 -14 -9 -4 -6 10 -10 7
-15 -13 -9 -36 -4 -39 25 -17 34 27 85 52 106 52 10 0 27 8 38 16 20 16 20 16
-2 9 -17 -4 -22 -3 -18 7 2 7 0 29 -4 48 -5 19 -9 29 -10 23 -2 -21 -21 -14
-21 7 0 11 7 20 16 20 8 0 12 5 9 10 -4 6 -11 8 -16 4 -5 -3 -16 0 -25 6 -12
11 -12 14 3 26 17 13 17 15 -2 29 -11 9 -20 23 -20 32 0 9 -6 18 -14 21 -11 4
-12 0 -6 -14z"/>
<path d="M2600 3260 c-9 -6 -7 -10 8 -14 17 -6 19 -11 12 -36 -5 -18 -5 -32 1
-35 5 -4 9 -1 9 5 0 8 9 10 25 6 16 -4 38 1 62 14 21 11 53 20 71 20 23 0 32
4 29 13 -2 6 -15 12 -28 12 -13 0 -30 -6 -37 -12 -7 -7 -21 -13 -30 -14 -9 0
-25 -2 -34 -4 -10 -2 -18 3 -18 10 0 18 -54 45 -70 35z"/>
<path d="M1904 3243 c0 -10 -5 -17 -11 -15 -7 1 -13 -3 -13 -9 0 -6 9 -9 20
-6 22 6 27 -12 8 -31 -9 -9 -9 -15 -1 -23 7 -7 22 -4 49 10 21 12 33 21 26 21
-7 0 -10 4 -7 10 3 5 0 8 -7 5 -7 -3 -21 8 -30 25 -19 33 -37 40 -34 13z"/>
<path d="M1760 3228 c0 -7 7 -31 15 -53 14 -39 14 -39 14 -10 1 39 -9 75 -20
75 -5 0 -9 -6 -9 -12z"/>
<path d="M2054 3208 c1 -13 6 -26 11 -30 17 -12 14 -48 -4 -49 -10 0 -6 -5 10
-12 14 -7 33 -18 42 -25 9 -8 22 -12 29 -9 7 3 4 6 -7 7 -20 1 -20 1 -1 15 17
13 18 15 3 15 -9 0 -17 5 -17 10 0 6 -7 10 -15 10 -11 0 -12 5 -5 25 7 20 6
25 -5 25 -8 0 -15 9 -15 20 0 11 -6 20 -13 20 -8 0 -13 -10 -13 -22z"/>
<path d="M2408 3209 c14 -16 16 -33 2 -24 -6 3 -13 -1 -16 -9 -3 -9 -10 -13
-15 -10 -5 3 -6 -1 -3 -9 3 -8 1 -18 -5 -22 -16 -9 -13 -25 3 -19 20 8 76 -90
70 -122 -2 -12 0 -25 6 -29 12 -7 5 68 -10 95 -8 16 -8 20 4 20 8 0 18 -4 21
-10 3 -5 18 -10 33 -9 l27 1 -28 10 c-15 5 -25 13 -22 18 3 4 -3 11 -12 14
-15 6 -15 8 -3 17 11 7 6 8 -14 3 -23 -5 -27 -4 -21 6 6 10 4 12 -8 7 -21 -8
-22 7 -1 27 18 19 15 47 -6 54 -12 4 -13 2 -2 -9z"/>
<path d="M1420 3143 c24 -47 45 -69 54 -55 3 5 -12 29 -34 53 l-40 44 20 -42z"/>
<path d="M983 3154 c-7 -7 -13 -18 -13 -23 0 -5 -10 -17 -22 -25 -20 -14 -20
-17 -6 -33 8 -10 13 -24 11 -30 -3 -7 -1 -13 4 -13 5 0 10 15 11 32 2 18 10
43 18 56 19 29 16 58 -3 36z"/>
<path d="M2883 3157 c-12 -20 -39 -27 -52 -14 -8 8 -11 8 -11 -2 0 -11 -3 -11
-15 -1 -11 9 -15 9 -15 1 0 -7 -6 -9 -12 -5 -7 4 -3 -3 9 -15 12 -11 31 -21
42 -21 21 0 45 -32 33 -44 -3 -4 2 -4 12 0 14 5 15 9 4 15 -11 7 -10 9 1 9 11
0 10 4 -3 19 -16 18 -16 20 5 34 11 9 29 13 38 10 17 -7 16 -5 -11 15 -13 11
-18 11 -25 -1z"/>
<path d="M1283 3145 c-7 -8 -13 -19 -13 -25 0 -12 17 -13 24 -1 4 5 22 5 43 0
58 -13 68 -12 53 6 -7 8 -25 15 -41 15 -16 0 -29 5 -29 10 0 15 -23 12 -37 -5z"/>
<path d="M2021 3135 c1 -11 -1 -28 -5 -37 -12 -26 -3 -53 19 -55 11 -2 14 0 8
3 -9 4 -9 11 3 29 15 23 14 26 -6 52 -19 24 -22 25 -19 8z"/>
<path d="M2270 3121 c0 -11 -5 -21 -12 -23 -7 -3 6 -15 29 -28 23 -12 44 -32
47 -44 5 -17 8 -18 15 -6 7 9 6 17 -1 21 -6 4 -7 16 -3 29 5 15 4 20 -4 16 -6
-4 -11 0 -12 11 0 10 -3 13 -6 6 -7 -17 -43 6 -36 24 3 7 0 13 -6 13 -6 0 -11
-9 -11 -19z"/>
<path d="M2565 3110 c3 -4 -4 -10 -15 -13 -14 -4 -19 -13 -18 -30 1 -16 7 -23
16 -20 7 3 11 10 9 17 -5 16 21 39 34 30 7 -4 10 -2 7 6 -2 7 -12 14 -21 16
-9 1 -15 -1 -12 -6z"/>
<path d="M1046 3083 c2 -16 7 -34 9 -42 4 -9 0 -11 -10 -7 -9 3 -13 2 -10 -3
3 -5 1 -12 -5 -16 -16 -10 -12 -35 5 -29 8 4 15 11 15 16 0 6 10 20 23 32 18
17 21 24 11 33 -6 7 -15 9 -18 6 -3 -4 -6 3 -6 15 0 12 -4 22 -9 22 -5 0 -8
-12 -5 -27z"/>
<path d="M1268 3082 c-7 -10 -21 -21 -31 -25 -24 -9 -53 -77 -37 -87 9 -6 9
-13 0 -30 -10 -18 -9 -24 1 -31 23 -15 29 -10 29 21 0 55 28 70 128 70 85 0
89 -1 100 -26 7 -14 17 -22 22 -19 6 4 8 10 5 15 -3 5 -1 11 5 15 37 23 -20
74 -88 78 -29 1 -37 5 -31 14 13 15 -10 23 -33 12 -10 -6 -19 -5 -23 1 -10 16
-33 12 -47 -8z m79 -41 c57 2 111 -19 58 -23 -56 -4 -155 -4 -155 0 0 2 5 12
11 23 8 15 14 18 23 9 8 -6 36 -10 63 -9z"/>
<path d="M2198 3078 c-3 -7 -19 -11 -41 -10 -23 2 -37 -2 -37 -9 0 -6 -7 -9
-15 -5 -12 4 -13 2 -3 -13 11 -18 13 -18 56 0 37 16 51 18 78 9 19 -7 34 -16
34 -22 0 -6 3 -8 7 -5 3 4 13 1 22 -5 9 -7 -3 7 -26 30 -43 42 -68 52 -75 30z"/>
<path d="M893 3050 c-3 -11 -9 -20 -13 -20 -5 0 -12 -9 -15 -20 -4 -11 -11
-17 -17 -14 -7 5 -8 2 -3 -6 5 -9 14 -5 30 16 21 26 22 27 33 8 6 -10 12 -14
12 -8 0 5 -5 15 -11 21 -15 15 -2 33 19 27 14 -5 15 -4 2 5 -22 16 -31 13 -37
-9z"/>
<path d="M1915 3021 c-30 -39 -27 -48 24 -80 43 -28 50 -30 80 -18 27 10 33 9
41 -3 7 -11 9 -6 7 18 -1 23 -6 31 -16 27 -8 -3 -17 -2 -20 3 -3 5 -16 12 -28
16 -18 6 -23 3 -24 -11 0 -10 -3 -13 -5 -6 -3 7 -11 10 -18 7 -19 -7 -28 23
-12 38 10 10 10 16 2 24 -8 8 -17 3 -31 -15z"/>
<path d="M1087 3028 c6 -7 13 -38 16 -68 3 -30 2 -46 -2 -36 -10 27 -17 9 -15
-39 5 -95 5 -92 13 -70 5 11 6 26 3 33 -2 7 2 20 9 29 10 12 10 15 2 9 -17 -9
-16 -5 2 30 8 16 15 39 15 52 0 26 -27 72 -42 72 -7 0 -7 -4 -1 -12z"/>
<path d="M2693 3003 c9 -11 17 -25 17 -31 0 -7 5 -12 11 -12 5 0 7 4 4 10 -3
5 0 7 8 4 18 -7 30 22 14 33 -7 5 -25 10 -42 12 -29 3 -29 2 -12 -16z"/>
<path d="M2856 3003 c-4 -13 -12 -23 -17 -23 -11 0 -1 -50 13 -65 6 -6 7 -3 2
8 -3 9 -1 31 6 47 7 16 10 35 8 42 -3 8 -8 4 -12 -9z"/>
<path d="M700 2990 c0 -6 -3 -9 -7 -9 -32 5 -63 -23 -73 -65 -10 -46 -2 -45
33 5 15 22 38 44 52 49 29 11 31 16 10 24 -8 3 -15 1 -15 -4z"/>
<path d="M2120 2974 c0 -14 -4 -23 -10 -19 -5 3 -10 1 -10 -4 0 -18 28 -12 33
7 4 15 5 15 6 -2 1 -14 7 -17 26 -14 17 4 29 0 35 -11 11 -20 25 -8 16 15 -4
11 -13 14 -30 10 -14 -3 -28 -1 -32 6 -5 7 -2 8 7 3 8 -4 4 2 -8 14 -28 27
-33 27 -33 -5z"/>
<path d="M2333 2987 c4 -11 -1 -18 -14 -22 -25 -8 -24 -22 1 -30 11 -4 18 -11
15 -16 -4 -5 -1 -9 5 -9 6 0 13 7 16 15 4 8 12 15 20 15 8 0 14 5 14 11 0 5
-5 7 -12 3 -8 -5 -9 0 -6 14 4 12 2 22 -2 22 -5 0 -16 3 -26 7 -13 5 -16 3
-11 -10z"/>
<path d="M788 2984 c-3 -5 -5 -29 -3 -54 1 -25 -2 -58 -7 -75 -5 -16 -11 -41
-14 -55 -3 -14 -7 -34 -10 -45 -6 -20 -6 -20 9 0 8 10 12 26 9 35 -4 11 -2 12
8 3 9 -8 20 -5 47 13 36 24 59 23 49 -2 -4 -12 -2 -12 14 -4 18 10 18 42 0 37
-5 -1 -16 7 -25 18 -9 11 -14 14 -10 8 6 -12 -7 -18 -28 -14 -5 1 -6 -2 -4 -6
3 -5 -1 -13 -8 -20 -20 -19 -28 27 -9 56 9 13 11 20 5 17 -6 -4 -11 0 -11 8 0
9 5 16 11 16 5 0 8 4 5 9 -3 5 1 11 9 15 19 7 19 22 1 29 -11 4 -13 1 -10 -11
3 -9 -1 -6 -9 7 -8 13 -17 20 -19 15z"/>
<path d="M226 2965 c-9 -23 -9 -22 25 -39 42 -21 57 -10 22 17 -15 12 -31 25
-34 30 -3 5 -9 1 -13 -8z"/>
<path d="M933 2933 c-1 -21 1 -30 4 -20 2 9 8 17 13 17 4 0 10 9 13 20 4 14 0
20 -12 20 -13 0 -17 -9 -18 -37z"/>
<path d="M996 2934 c-8 -22 -8 -54 2 -54 4 0 14 5 22 11 13 9 12 10 -2 5 -21
-6 -25 23 -6 42 8 8 8 12 1 12 -6 0 -14 -7 -17 -16z"/>
<path d="M1293 2937 c16 -6 26 -16 23 -24 -4 -9 3 -13 20 -13 19 0 25 4 21 14
-4 10 -1 13 8 10 8 -3 22 1 30 10 15 15 10 16 -57 15 -64 -1 -69 -3 -45 -12z"/>
<path d="M1690 2935 c0 -8 -6 -15 -12 -15 -8 0 -13 -12 -12 -32 2 -36 -20 -68
-45 -69 -10 0 -12 -2 -3 -6 20 -8 15 -42 -6 -36 -22 5 -68 -32 -52 -42 6 -4
20 1 31 11 11 10 32 18 47 19 16 0 26 5 25 12 -2 7 3 10 10 7 8 -3 19 7 26 22
10 22 9 28 -6 40 -15 11 -15 13 -3 14 8 0 21 9 28 20 12 20 12 21 -13 4 -23
-15 -25 -15 -25 1 0 9 7 23 15 31 17 18 20 34 5 34 -5 0 -10 -7 -10 -15z"/>
<path d="M1480 2932 c0 -6 -10 -12 -22 -14 -16 -2 -24 -11 -26 -28 -3 -21 -2
-22 12 -11 12 10 16 10 16 2 0 -7 5 -9 10 -6 6 4 8 11 4 16 -3 5 0 17 7 25 6
8 9 17 5 21 -3 3 -6 1 -6 -5z"/>
<path d="M2230 2935 c0 -25 44 -75 65 -74 6 0 4 3 -2 6 -7 2 -13 9 -13 14 0 6
5 7 12 3 7 -4 8 -3 4 4 -9 15 -66 55 -66 47z"/>
<path d="M1833 2918 c2 -7 18 -13 34 -14 23 -1 30 3 26 13 -4 10 -9 11 -19 2
-10 -8 -14 -8 -14 0 0 6 -7 11 -16 11 -9 0 -14 -6 -11 -12z"/>
<path d="M559 2875 c-9 -25 -13 -45 -9 -45 10 0 33 66 28 80 -2 6 -10 -10 -19
-35z"/>
<path d="M80 2899 c0 -5 14 -15 30 -24 17 -9 30 -12 30 -9 0 4 11 -3 25 -16
14 -13 23 -30 20 -38 -5 -13 -3 -13 11 -1 14 12 14 14 0 24 -9 7 -13 15 -9 18
3 4 0 7 -8 7 -11 0 -11 2 1 10 11 7 4 10 -27 10 -29 0 -43 4 -43 13 0 8 -7 14
-15 14 -8 0 -15 -4 -15 -8z"/>
<path d="M2081 2887 c-15 -38 -14 -47 4 -47 9 0 15 9 15 23 1 21 1 22 15 3 11
-14 15 -16 15 -5 0 12 2 12 9 0 5 -7 14 -10 20 -7 6 4 11 4 12 -1 0 -4 2 -16
4 -25 2 -11 -3 -18 -12 -18 -13 0 -13 3 -3 15 7 8 8 15 4 15 -5 0 -15 -9 -22
-20 -11 -18 -10 -20 10 -21 l23 0 -22 -9 c-29 -12 -29 -28 0 -39 12 -5 38 -23
56 -40 19 -17 36 -29 39 -26 3 3 2 5 -3 5 -4 0 -2 7 5 15 7 8 9 15 4 15 -5 0
-2 5 6 10 12 8 10 10 -9 10 -17 0 -22 4 -17 16 5 14 4 15 -9 4 -12 -10 -15
-10 -15 4 0 10 -4 14 -10 11 -14 -9 -12 7 4 30 7 11 14 24 15 29 1 15 32 16
46 2 7 -7 15 -22 17 -33 2 -17 5 -18 15 -8 9 10 5 19 -18 43 -27 28 -41 32
-74 20 -13 -4 -66 37 -58 46 3 3 -1 6 -10 6 -9 0 -19 -5 -23 -11 -4 -8 -9 -7
-15 2 -6 10 -11 6 -18 -14z"/>
<path d="M1594 2892 c-17 -11 -36 -52 -25 -52 5 0 13 5 16 10 4 6 12 7 18 3 9
-5 9 -3 0 8 -10 12 -10 18 -1 27 13 13 9 16 -8 4z"/>
<path d="M915 2856 c0 -19 3 -37 6 -41 4 -3 7 12 7 35 0 22 -2 40 -6 40 -4 0
-7 -15 -7 -34z"/>
<path d="M2318 2879 c7 -9 9 -19 5 -22 -3 -4 -1 -7 6 -7 7 0 9 -4 6 -10 -3 -5
-2 -10 2 -10 5 0 17 -15 27 -34 11 -21 24 -32 32 -29 8 3 14 0 14 -7 0 -6 4
-9 8 -6 5 3 19 -6 30 -19 12 -14 17 -25 10 -25 -9 0 -9 -3 -1 -11 7 -7 19 -9
27 -6 12 5 14 12 6 32 -8 20 -6 25 6 25 8 0 13 4 10 9 -3 4 12 16 34 26 35 16
39 21 33 44 -8 37 -11 37 -23 7 -5 -15 -18 -30 -27 -33 -10 -4 -25 -15 -33
-26 -12 -15 -20 -16 -42 -8 -14 5 -32 18 -39 29 -14 19 -19 22 -39 22 -5 0
-10 5 -10 10 0 6 -12 23 -27 38 -15 15 -21 20 -15 11z"/>
<path d="M2656 2874 c-18 -18 -11 -38 10 -30 8 3 14 0 14 -6 0 -6 3 -8 6 -5 4
4 15 -3 25 -14 10 -12 25 -19 33 -16 9 4 16 -3 20 -19 4 -14 11 -22 16 -19 14
9 0 36 -38 69 -62 55 -69 58 -86 40z"/>
<path d="M353 2866 c-13 -6 -23 -16 -23 -23 0 -7 -7 -13 -15 -13 -8 0 -15 7
-15 15 0 8 -4 15 -10 15 -12 0 -12 -1 1 -56 13 -51 24 -56 32 -16 3 16 19 43
35 60 32 34 31 36 -5 18z"/>
<path d="M2935 2863 c-11 -25 -13 -53 -4 -47 4 2 14 -2 22 -10 7 -8 19 -11 26
-7 9 6 8 11 -3 20 -8 7 -21 9 -27 5 -9 -5 -10 1 -6 24 7 35 3 42 -8 15z"/>
<path d="M1796 2862 c-3 -5 -20 -7 -38 -5 -18 1 -27 0 -20 -3 6 -3 9 -10 6
-15 -3 -6 -3 -21 0 -35 5 -17 13 -24 30 -24 21 0 71 -31 87 -53 4 -5 12 -8 19
-5 8 2 -6 23 -35 51 -37 37 -46 53 -42 72 4 26 2 31 -7 17z"/>
<path d="M517 2820 c13 -23 27 -36 44 -37 14 -2 18 0 9 4 -8 3 -28 20 -44 37
l-28 31 19 -35z"/>
<path d="M580 2822 c0 -12 9 -18 30 -19 17 -1 30 1 30 5 -1 29 -60 43 -60 14z"/>
<path d="M1851 2819 c-7 -12 -10 -24 -7 -27 3 -3 6 1 6 9 0 8 10 2 25 -15 13
-16 22 -32 19 -37 -3 -5 2 -6 10 -3 8 3 13 14 11 25 -2 10 0 19 5 19 4 0 6 9
3 19 -5 21 -43 36 -43 18 0 -9 -2 -9 -8 0 -6 9 -11 6 -21 -8z"/>
<path d="M37 2809 c-3 -13 2 -28 14 -40 10 -10 19 -23 19 -29 0 -5 6 -10 13
-11 18 -1 87 -9 120 -13 19 -3 35 2 48 15 19 19 19 19 -1 19 -11 0 -20 -4 -20
-9 0 -6 -10 -8 -21 -6 -12 2 -39 5 -60 7 -22 1 -39 5 -39 10 0 4 -7 5 -15 2
-15 -6 -40 38 -36 64 3 21 -16 13 -22 -9z"/>
<path d="M653 2812 c-8 -13 -8 -24 0 -38 5 -10 6 -16 2 -12 -5 5 -17 -6 -27
-22 -14 -24 -23 -29 -44 -26 -21 4 -25 2 -19 -12 4 -9 10 -26 13 -37 3 -11 12
-25 20 -31 13 -10 13 -14 0 -32 -8 -12 -18 -19 -21 -15 -4 3 -7 -3 -7 -14 0
-12 -5 -23 -11 -25 -7 -2 -5 -11 7 -22 18 -19 19 -18 26 18 11 52 27 79 44 72
8 -3 14 -3 14 0 0 2 -11 9 -25 14 -17 6 -23 15 -20 30 5 28 14 40 28 40 7 0
21 15 32 33 27 44 37 69 25 62 -6 -4 -14 3 -18 14 -7 20 -8 20 -19 3z"/>
<path d="M1950 2814 c0 -10 6 -14 14 -11 16 6 24 -10 32 -62 10 -72 14 -81 53
-100 21 -11 42 -17 46 -13 3 4 5 0 3 -8 -1 -8 3 -14 10 -12 6 1 12 -2 12 -8 0
-10 52 -40 71 -40 6 0 9 7 5 15 -3 9 0 15 9 15 22 0 18 27 -5 33 -11 3 -20 1
-20 -5 0 -5 -5 -6 -11 -2 -6 3 -9 19 -7 35 3 15 1 26 -4 23 -4 -3 -8 -15 -9
-27 -1 -13 -5 -5 -10 17 -13 54 -22 61 -14 11 l6 -40 -20 43 c-11 23 -23 42
-26 42 -3 0 -1 -9 5 -19 5 -11 10 -26 10 -33 -1 -7 -6 -3 -13 10 -7 12 -16 19
-20 16 -4 -4 -7 1 -7 12 0 14 -2 16 -9 6 -6 -10 -10 -7 -15 12 -4 17 -11 24
-18 20 -8 -5 -9 -2 -5 10 4 9 3 14 -2 11 -5 -3 -11 7 -13 21 -3 31 -48 56 -48
28z"/>
<path d="M985 2767 c-19 -9 -21 -18 -19 -94 1 -47 4 -87 7 -89 2 -2 11 -2 20
2 13 5 14 10 6 26 -7 14 -7 23 1 33 7 9 8 15 0 20 -5 3 -10 22 -10 40 0 27 3
33 15 29 10 -4 14 -14 10 -28 -5 -19 -5 -19 5 -3 6 9 15 15 21 12 13 -9 -3 28
-20 45 -12 12 -22 13 -36 7z"/>
<path d="M441 2763 c4 -22 -2 -43 -11 -38 -6 4 -7 -2 -1 -18 6 -16 6 -28 -2
-36 -8 -8 -5 -11 11 -11 24 0 28 10 11 27 -7 7 -9 19 -5 29 9 25 31 1 31 -34
1 -21 6 -28 32 -33 29 -6 31 -4 23 12 -6 10 -10 27 -10 39 0 11 -6 20 -12 19
-29 -3 -38 2 -35 23 1 14 -4 23 -16 26 -10 2 -17 0 -16 -5z"/>
<path d="M2306 2751 c-3 -4 1 -17 9 -27 8 -10 15 -28 15 -38 0 -15 3 -17 11
-9 8 8 8 21 -1 47 -11 35 -23 45 -34 27z"/>
<path d="M1929 2745 c-1 -5 -1 -13 -1 -17 3 -18 -26 -26 -63 -18 -22 5 -42 7
-44 4 -9 -9 21 -22 68 -29 25 -4 62 -13 81 -21 31 -12 33 -12 16 1 -11 8 -28
32 -38 52 -9 21 -18 34 -19 28z"/>
<path d="M890 2730 c0 -6 -11 -16 -25 -22 -19 -9 -24 -16 -19 -32 6 -18 5 -19
-9 -7 -14 11 -18 11 -23 -3 -3 -9 -11 -13 -18 -10 -6 3 -3 -1 6 -8 9 -8 36
-21 60 -28 24 -8 46 -18 49 -23 3 -5 9 1 12 12 3 12 2 19 -3 16 -10 -6 -22 24
-14 36 3 5 1 9 -5 9 -6 0 -4 14 5 35 13 31 13 35 -1 35 -8 0 -15 -5 -15 -10z"/>
<path d="M2859 2728 c-1 -7 0 -21 1 -31 1 -16 -1 -17 -22 -7 -23 12 -23 12 -3
-6 11 -11 26 -25 32 -33 11 -12 14 -10 21 10 6 15 6 26 0 30 -5 3 -9 9 -9 13
3 22 0 36 -9 36 -5 0 -11 -6 -11 -12z"/>
<path d="M1096 2712 c-5 -15 -2 -27 8 -38 9 -8 16 -24 16 -34 0 -26 -25 -82
-33 -73 -4 3 -7 -1 -7 -10 0 -9 -6 -17 -14 -17 -17 0 -29 27 -16 35 18 11 10
23 -10 18 -11 -3 -17 -10 -13 -16 4 -7 0 -8 -11 -4 -15 6 -17 4 -11 -10 4 -10
8 -24 8 -31 0 -9 11 -12 34 -9 19 3 36 7 38 8 17 18 74 113 70 117 -3 3 -5 2
-5 -2 0 -18 -27 22 -36 54 -10 32 -11 33 -18 12z"/>
<path d="M2595 2701 c-19 -38 -3 -49 23 -16 11 14 26 25 33 25 11 0 11 3 -1
10 -25 16 -39 11 -55 -19z"/>
<path d="M1702 2695 c-17 -14 -35 -25 -41 -25 -6 0 -11 -4 -11 -10 0 -5 -3 -9
-7 -8 -12 2 -46 -13 -65 -30 -10 -8 -35 -16 -55 -19 -21 -2 -43 -11 -50 -19
-7 -10 -17 -13 -25 -8 -7 4 -10 4 -6 -1 4 -4 2 -15 -5 -23 -10 -13 -8 -14 13
-8 82 23 341 176 298 176 -9 0 -30 -11 -46 -25z"/>
<path d="M1776 2681 c-8 -13 50 -31 101 -31 65 0 139 -51 162 -113 6 -15 17
-27 26 -27 19 0 19 4 1 38 -34 65 -98 106 -196 126 -88 19 -87 19 -94 7z"/>
<path d="M2249 2668 c0 -2 -2 -12 -4 -23 -1 -11 -6 -28 -10 -37 -5 -13 -2 -17
14 -15 12 1 21 5 21 8 0 4 14 9 32 11 29 3 54 28 28 28 -6 0 -8 -5 -4 -12 5
-9 3 -9 -9 1 -9 7 -15 17 -12 21 3 4 -2 11 -11 14 -16 6 -43 8 -45 4z"/>
<path d="M2780 2658 c0 -11 -5 -15 -15 -12 -11 5 -13 2 -8 -12 5 -14 3 -16
-13 -10 -15 6 -17 5 -6 -5 6 -7 12 -21 12 -31 0 -10 5 -18 10 -18 11 0 11 2
15 39 1 13 7 26 13 30 7 4 8 12 2 21 -8 13 -10 12 -10 -2z"/>
<path d="M1238 2644 c-16 -8 -28 -12 -28 -8 0 4 -7 1 -15 -6 -8 -7 -13 -16
-10 -20 3 -5 -11 -18 -30 -30 -41 -26 -44 -33 -10 -24 29 7 35 -11 7 -20 -10
-4 -19 -12 -19 -19 -1 -6 -8 -52 -17 -101 -20 -110 -20 -170 -1 -189 12 -13
12 -20 -4 -54 -11 -21 -28 -46 -39 -56 -12 -11 -17 -26 -15 -40 4 -18 -2 -25
-31 -37 -26 -10 -36 -20 -36 -36 0 -13 -5 -35 -12 -51 -6 -15 -12 -45 -13 -65
-1 -21 -13 -54 -28 -77 -28 -43 -34 -66 -17 -76 6 -4 10 5 10 19 0 16 6 26 15
26 8 0 15 7 15 16 0 9 6 30 14 47 23 52 34 90 35 122 1 16 8 36 17 45 14 13
17 13 28 -3 12 -15 17 -9 45 54 18 40 37 97 42 128 6 31 15 72 21 91 12 40 80
161 104 184 9 9 17 32 18 51 4 39 16 61 16 27 0 -27 35 -38 70 -22 23 10 22
10 -11 6 -35 -4 -36 -4 -48 45 -13 50 -31 66 -31 28 0 -11 -4 -17 -10 -14 -6
3 -10 -5 -10 -18 0 -14 -6 -27 -14 -30 -24 -10 -72 -113 -91 -196 -22 -97 -40
-108 -32 -18 9 87 42 178 94 256 55 81 55 81 51 81 -2 -1 -15 -8 -30 -16z"/>
<path d="M2636 2633 c-9 -23 -7 -26 14 -20 10 3 21 0 23 -7 2 -6 7 -8 11 -5 3
3 -5 15 -18 27 -21 17 -25 18 -30 5z"/>
<path d="M660 2624 c0 -7 9 -14 20 -17 17 -4 20 -12 17 -44 -1 -21 -7 -44 -11
-52 -6 -9 -5 -12 5 -9 9 3 14 21 14 54 l0 49 33 -14 c17 -9 32 -19 32 -23 0
-4 5 -8 11 -8 5 0 7 5 4 10 -3 6 -1 10 4 10 10 0 15 -14 12 -32 0 -4 6 -5 14
-2 17 7 20 -7 4 -23 -8 -8 -2 -23 20 -53 17 -23 28 -46 25 -51 -4 -8 8 -13 27
-11 8 1 5 -31 -5 -46 -4 -6 -4 -12 1 -12 4 0 1 -5 -7 -11 -11 -7 -12 -12 -3
-15 7 -3 10 -13 7 -22 -4 -13 -3 -13 6 2 18 28 49 56 61 56 8 0 8 4 0 14 -10
11 -8 17 6 25 10 6 14 11 9 11 -6 0 -1 7 10 16 10 8 12 13 4 9 -8 -4 -4 2 10
14 l25 20 -24 -6 c-14 -4 -22 -2 -18 3 3 5 -3 21 -14 34 -12 15 -17 18 -13 8
3 -10 1 -18 -5 -18 -6 0 -11 5 -11 10 0 5 -3 9 -7 9 -23 -4 -32 4 -36 29 -3
22 -4 21 -6 -10 -1 -28 -5 -36 -18 -34 -19 3 -31 26 -13 26 7 0 5 6 -4 16 -9
8 -16 20 -16 25 0 6 -4 8 -9 5 -5 -3 -11 1 -15 9 -3 8 -18 15 -33 15 -19 0
-24 3 -15 9 9 5 0 10 -29 15 -30 5 -39 10 -30 16 10 5 6 8 -12 7 -15 -1 -27
-7 -27 -13z m262 -146 c34 -28 25 -63 -17 -63 -33 0 -37 74 -4 75 3 0 12 -6
21 -12z"/>
<path d="M256 2603 c-14 -20 -16 -27 -6 -36 10 -9 11 -9 6 1 -4 6 -3 12 3 12
13 0 33 37 24 43 -5 3 -16 -6 -27 -20z"/>
<path d="M2050 2617 c0 -6 35 -63 64 -102 8 -11 17 -17 21 -13 5 4 -4 25 -19
47 -28 40 -66 79 -66 68z"/>
<path d="M2375 2610 c4 -6 -6 -10 -22 -10 -15 0 -35 -5 -43 -11 -12 -8 -7 -9
18 -6 17 2 32 0 32 -5 0 -5 4 -7 9 -4 5 3 11 -1 14 -9 4 -8 -1 -16 -12 -20
-18 -5 -21 -30 -7 -53 4 -7 12 -10 17 -7 5 4 9 -3 9 -13 0 -11 6 -22 14 -25 8
-3 17 -20 21 -37 7 -30 39 -70 57 -70 5 0 1 11 -9 24 -10 13 -21 22 -25 19 -5
-2 -8 0 -8 6 0 5 5 13 10 16 13 8 13 25 -1 25 -5 0 -7 -6 -3 -12 4 -8 3 -10
-2 -5 -5 5 -9 12 -9 16 0 4 -8 16 -19 26 -18 18 -18 19 0 32 16 12 16 13 1 13
-17 0 -22 24 -19 93 0 18 -4 27 -14 27 -8 0 -12 -4 -9 -10z"/>
<path d="M2610 2590 c0 -6 -10 -15 -22 -20 -13 -5 -17 -9 -10 -9 17 -1 43 -27
35 -35 -3 -3 -12 -1 -20 6 -7 6 -16 8 -20 5 -3 -4 6 -12 21 -18 14 -7 26 -16
26 -21 0 -5 5 -6 10 -3 16 10 12 33 -9 54 -20 20 -20 20 5 23 24 3 24 3 4 16
-12 7 -20 8 -20 2z"/>
<path d="M1875 2581 c-27 -11 -51 -40 -65 -76 -6 -17 -11 -32 -10 -33 1 -2 -6
-9 -14 -15 -19 -15 -61 -126 -82 -216 -13 -56 -14 -86 -4 -196 19 -225 30
-287 69 -405 56 -169 62 -200 49 -243 -9 -31 -8 -45 10 -92 13 -34 22 -80 22
-113 0 -67 9 -109 20 -92 5 8 13 9 26 2 56 -31 286 -97 308 -89 6 2 -9 10 -34
16 -67 18 -283 90 -298 100 -12 7 -7 32 14 69 0 1 68 -16 150 -39 82 -23 160
-43 174 -46 l25 -3 -25 11 c-31 14 -306 89 -325 89 -16 0 -18 46 -3 66 5 7 -2
15 -17 22 -28 13 -40 50 -30 90 12 50 5 113 -18 158 -37 71 -76 257 -87 412
-6 84 -15 163 -20 176 -6 16 -4 43 6 82 9 33 18 71 21 86 3 15 9 25 14 22 5
-3 6 3 2 13 -3 10 -3 15 2 11 4 -4 34 16 67 43 34 28 85 64 114 81 54 30 69
43 37 31 -46 -16 -113 -61 -160 -107 -58 -55 -63 -55 -33 3 10 21 16 41 13 45
-4 3 -1 6 5 6 7 0 12 6 12 13 0 30 27 66 67 92 24 15 43 29 43 31 0 6 -23 4
-45 -5z"/>
<path d="M57 2574 c-11 -11 3 -24 24 -24 11 0 17 -4 14 -10 -3 -5 1 -10 9 -10
10 0 13 6 10 15 -4 8 -17 15 -31 15 -13 0 -21 4 -18 10 7 11 2 13 -8 4z"/>
<path d="M370 2560 c0 -12 -4 -19 -9 -15 -6 3 -8 -4 -6 -15 2 -11 -3 -24 -12
-28 -13 -8 -11 -10 10 -14 17 -3 24 -1 20 8 -6 16 14 27 35 18 9 -4 23 -8 30
-10 8 -1 20 -11 28 -21 13 -17 15 -26 18 -68 0 -11 5 -26 10 -34 7 -10 5 -12
-5 -6 -10 5 -9 3 2 -9 18 -20 56 -12 39 9 -5 6 -7 15 -3 18 3 4 1 7 -6 7 -7 0
-11 7 -8 15 4 8 2 17 -3 20 -5 3 -21 29 -34 57 -14 29 -26 44 -28 34 -3 -14
-6 -14 -36 1 -20 9 -31 21 -28 29 3 7 1 16 -4 19 -6 4 -10 -3 -10 -15z"/>
<path d="M213 2563 c-7 -3 -13 -12 -14 -21 0 -11 -2 -12 -6 -4 -2 6 -9 10 -14
7 -15 -10 26 -46 44 -39 18 7 23 24 7 24 -5 0 -10 -4 -10 -10 0 -5 -4 -10 -9
-10 -5 0 -7 9 -4 20 4 15 11 19 27 15 12 -4 17 -3 11 2 -5 5 -12 11 -15 14 -3
4 -11 4 -17 2z"/>
<path d="M2243 2443 c61 -91 127 -239 164 -368 3 -11 16 -34 29 -52 23 -30 23
-32 8 -83 -9 -29 -31 -68 -52 -91 -31 -35 -36 -47 -34 -82 2 -23 -1 -64 -7
-91 -6 -33 -6 -55 1 -66 9 -13 4 -32 -21 -81 l-32 -63 21 -16 c18 -13 19 -20
11 -42 -5 -14 -15 -29 -20 -33 -18 -10 -13 -39 9 -53 20 -12 29 -62 11 -62 -5
0 -12 -13 -16 -29 -3 -16 -13 -32 -21 -35 -8 -3 -14 -16 -14 -28 0 -13 -7 -33
-15 -45 -18 -25 -77 -242 -69 -254 2 -4 -1 -11 -7 -14 -7 -5 -9 -23 -5 -49 3
-22 6 -81 7 -130 1 -66 6 -93 18 -106 9 -9 19 -15 23 -13 4 2 5 -2 2 -10 -3
-8 -1 -18 5 -22 12 -7 41 17 41 35 0 6 5 8 10 5 6 -3 10 -2 10 3 0 4 -15 14
-34 22 -24 9 -33 18 -29 29 3 12 2 12 -7 -2 -14 -21 -30 -13 -30 15 0 16 5 19
25 16 l25 -5 -20 35 c-14 23 -19 44 -15 60 4 15 2 21 -5 17 -7 -4 -7 2 0 20 6
17 6 24 0 20 -5 -3 -2 8 8 24 16 29 16 31 -2 44 -17 13 -17 15 12 39 20 17 27
29 22 39 -10 15 -4 29 11 29 6 0 7 -4 4 -10 -3 -5 -1 -10 6 -10 7 0 9 8 4 22
-17 57 -17 68 -1 68 19 0 22 30 4 30 -7 0 -5 5 5 11 9 5 17 19 17 30 0 12 10
35 22 52 13 18 21 32 20 32 -7 0 23 60 33 67 5 4 16 6 23 3 7 -3 10 0 7 5 -3
6 -13 10 -22 10 -9 0 -13 6 -9 15 3 8 2 15 -2 15 -4 0 -13 9 -19 19 -10 16 -9
25 2 48 18 34 19 48 3 73 -10 15 -9 22 6 39 10 11 24 17 32 14 8 -3 14 0 14 7
0 8 -9 10 -24 6 -27 -7 -45 18 -20 28 8 3 14 17 14 31 0 14 7 28 15 31 8 4 13
10 10 14 -3 5 -6 27 -7 49 -1 23 -5 41 -9 41 -9 0 0 41 14 57 6 9 4 15 -7 19
-12 4 -13 11 -6 24 9 17 12 17 40 4 30 -15 56 -11 44 7 -3 5 -10 7 -15 4 -5
-4 -12 1 -15 9 -3 9 -10 13 -15 10 -5 -3 -9 -1 -9 4 0 17 13 22 29 9 14 -10
14 -10 3 4 -10 14 -10 20 3 32 8 9 15 25 15 36 0 12 6 21 16 21 8 0 12 5 9 10
-12 19 5 30 30 20 16 -6 27 -6 31 2 4 6 3 8 -4 4 -6 -3 -14 -1 -17 5 -4 6 -18
8 -32 4 -30 -7 -55 19 -47 50 4 15 3 16 -4 6 -7 -10 -9 -6 -9 13 0 14 4 26 10
26 6 0 1 10 -10 23 -19 20 -36 57 -37 82 -1 6 -7 20 -14 33 -7 12 -12 31 -10
41 2 10 -1 18 -6 19 -15 1 -26 26 -20 46 5 15 3 18 -10 13 -12 -5 -16 0 -16
17 0 13 -7 26 -15 30 -8 3 -15 12 -15 19 0 8 -7 20 -15 27 -9 7 -14 19 -11 27
3 7 -1 13 -8 13 -8 0 -24 8 -37 19 -19 15 -21 21 -11 33 10 13 8 15 -15 14
l-28 -1 68 -102z"/>
<path d="M2433 2543 c-7 -2 -13 -11 -13 -19 0 -20 44 -18 67 4 10 9 14 14 8
11 -5 -4 -20 -10 -32 -13 -18 -6 -22 -4 -17 8 7 17 6 17 -13 9z"/>
<path d="M2680 2524 c0 -22 26 -45 43 -38 30 11 17 31 -17 25 -5 -1 -13 4 -17
11 -5 7 -9 8 -9 2z"/>
<path d="M251 2506 c-9 -11 -9 -16 0 -22 8 -5 3 -12 -15 -21 -26 -13 -27 -16
-12 -32 9 -10 16 -28 16 -40 0 -13 10 -35 22 -49 13 -17 19 -20 15 -9 -6 16
-3 18 22 12 17 -4 32 -2 36 5 3 6 3 10 -2 9 -23 -4 -31 3 -26 24 5 22 5 22
-11 2 -13 -17 -17 -18 -26 -5 -5 8 -8 20 -5 27 2 7 -1 15 -7 19 -7 5 -2 11 13
16 19 8 21 11 9 19 -11 8 -12 12 -2 16 6 2 12 12 12 21 -1 15 -2 15 -11 -1 -6
-9 -15 -15 -20 -11 -6 4 -6 11 2 20 6 8 9 14 6 14 -2 0 -10 -6 -16 -14z"/>
<path d="M2240 2511 c0 -19 20 -22 42 -7 22 16 22 16 -10 16 -17 0 -32 -4 -32
-9z"/>
<path d="M749 2487 c13 -34 13 -37 2 -37 -5 0 -11 8 -13 18 -3 14 -5 13 -10
-6 -3 -12 -2 -20 2 -17 5 3 14 -3 19 -14 15 -27 14 -31 -6 -31 -11 0 -14 -3
-7 -8 6 -4 4 -13 -7 -24 -16 -15 -19 -15 -31 0 -11 14 -10 15 7 8 15 -5 17 -4
8 5 -6 6 -16 8 -22 5 -7 -5 -1 -22 16 -48 15 -22 29 -35 31 -29 4 13 32 15 32
2 0 -10 -18 -24 -32 -27 -5 -1 -11 -2 -14 -3 -4 0 -1 -8 6 -16 11 -13 17 -10
42 25 16 22 34 40 39 40 16 0 10 25 -11 43 -15 13 -19 24 -14 45 4 21 3 24 -5
12 -6 -8 -11 -13 -11 -10 -1 3 -3 20 -5 38 -1 19 -8 39 -15 45 -8 9 -9 5 -1
-16z m31 -137 c0 -19 -20 -27 -33 -13 -8 7 11 33 24 33 5 0 9 -9 9 -20z"/>
<path d="M2484 2498 c3 -10 1 -20 -4 -23 -16 -10 -11 -21 15 -33 21 -10 25 -9
25 3 0 8 -7 15 -16 15 -8 0 -12 4 -9 10 3 5 1 18 -5 27 -11 16 -11 16 -6 1z"/>
<path d="M78 2492 c-10 -2 -18 -8 -18 -14 0 -6 3 -8 7 -5 3 4 12 -2 20 -13 8
-11 21 -20 29 -20 8 0 14 -10 14 -25 0 -14 4 -25 9 -25 5 0 12 -8 14 -17 4
-15 5 -14 6 3 0 11 8 29 16 40 20 27 19 34 -7 34 -19 0 -20 -2 -8 -10 13 -8
12 -10 -2 -10 -10 0 -18 4 -18 9 0 5 -9 11 -19 14 -11 2 -21 13 -23 24 -2 11
-10 17 -20 15z"/>
<path d="M668 2469 c-18 -17 -26 -27 -18 -22 8 4 26 8 40 8 19 1 25 6 26 23 2
30 -10 28 -48 -9z"/>
<path d="M2915 2490 c-3 -5 -1 -10 4 -10 6 0 2 -9 -9 -20 -25 -25 -56 -26 -69
-2 -5 10 -20 18 -33 19 -22 2 -22 1 4 -13 15 -7 29 -22 32 -32 3 -10 20 -23
38 -30 24 -9 29 -9 20 0 -18 18 -14 31 8 25 16 -4 18 -2 10 13 -7 13 -6 20 6
24 9 3 21 3 27 -1 7 -3 3 3 -7 15 -22 25 -23 25 -31 12z"/>
<path d="M1961 2449 c-45 -55 -35 -57 17 -3 24 24 37 44 29 44 -7 0 -28 -18
-46 -41z"/>
<path d="M533 2453 c-1 -23 0 -24 6 -9 7 19 8 18 14 -4 5 -19 9 -21 20 -11 24
19 28 50 6 48 -13 -1 -15 -5 -8 -13 6 -8 7 -14 0 -18 -5 -4 -12 3 -16 14 -9
29 -20 25 -22 -7z"/>
<path d="M2359 2443 c-5 -16 -12 -34 -14 -41 -4 -9 0 -10 15 -2 14 8 20 20 18
40 -3 37 -6 37 -19 3z"/>
<path d="M368 2454 c-4 -27 -3 -40 7 -46 17 -13 25 -9 25 11 0 19 -29 51 -32
35z"/>
<path d="M2757 2443 c6 -16 5 -16 -11 -4 -12 11 -16 11 -14 2 4 -17 -39 -34
-48 -19 -5 7 -2 8 6 3 9 -5 11 -4 6 3 -13 22 -28 13 -22 -13 5 -18 2 -25 -9
-25 -8 0 -15 -4 -15 -9 0 -5 11 -8 24 -7 13 0 22 6 20 11 -5 11 51 39 64 31 4
-2 8 4 9 14 1 11 -2 22 -8 25 -5 4 -6 -2 -2 -12z"/>
<path d="M2600 2418 c19 -34 20 -39 6 -53 -10 -10 -17 -12 -21 -5 -5 8 -11 7
-21 -1 -7 -6 -21 -9 -29 -5 -8 3 -15 1 -15 -5 0 -6 -4 -7 -10 -4 -5 3 -10 1
-10 -6 0 -16 90 -4 108 15 8 8 23 34 33 58 l19 43 -20 -24 c-11 -13 -20 -17
-20 -10 0 7 -3 9 -7 6 -3 -4 -12 1 -20 11 -8 9 -5 0 7 -20z"/>
<path d="M1005 2427 c-6 -7 -9 -19 -7 -28 1 -9 -4 -22 -13 -29 -8 -7 -15 -19
-15 -26 0 -8 -4 -14 -10 -14 -5 0 -10 -8 -11 -17 0 -10 -3 -13 -5 -6 -3 7 -12
9 -20 6 -7 -3 -12 -9 -9 -13 3 -5 -7 -19 -22 -32 -16 -12 -36 -35 -46 -50 -9
-16 -23 -28 -30 -28 -9 0 -8 3 1 9 8 4 14 11 13 15 0 12 -52 49 -58 42 -4 -3
0 -6 8 -6 11 0 11 -2 1 -9 -11 -7 -11 -10 0 -22 15 -16 20 -49 7 -49 -5 0 -14
10 -19 23 -5 12 -9 16 -9 9 -1 -20 -21 -4 -21 16 0 11 -8 18 -20 19 -27 2 -25
-7 10 -41 21 -21 29 -38 28 -58 -2 -25 -18 -42 -18 -18 0 6 -4 10 -9 10 -5 0
-7 -10 -3 -22 5 -22 5 -22 -16 -2 -11 11 -25 31 -31 44 -8 20 -10 21 -10 6 -1
-10 13 -34 30 -53 28 -33 34 -61 11 -56 -6 1 -16 -11 -24 -27 -7 -17 -19 -30
-26 -30 -7 0 -10 -5 -7 -10 4 -6 11 -8 16 -4 7 4 9 -7 7 -27 -2 -29 -7 -35
-30 -37 -23 -3 -28 1 -28 18 0 11 -6 23 -14 26 -8 3 -11 15 -8 30 4 21 1 25
-14 23 -11 -2 -25 0 -32 5 -19 11 -25 1 -10 -15 23 -24 60 -79 52 -79 -3 0 -1
-6 5 -13 6 -8 7 -17 3 -22 -4 -4 5 -5 21 -3 15 3 27 1 27 -3 0 -5 4 -9 9 -9
16 0 49 66 54 109 2 22 10 48 17 56 7 8 10 22 6 30 -3 9 0 15 10 15 8 0 13 4
10 9 -3 5 1 11 9 15 8 3 15 17 15 31 0 15 4 24 9 21 5 -3 5 -21 1 -41 -4 -19
-5 -35 -2 -35 3 0 1 -5 -6 -12 -15 -15 -16 -42 -2 -33 18 11 48 79 46 105 -2
33 21 68 59 91 16 11 27 19 22 19 -4 0 15 23 43 52 27 28 50 57 50 64 0 7 6
19 13 26 14 13 19 48 8 48 -3 -1 -11 -6 -16 -13z"/>
<path d="M1042 2382 c-2 -41 -8 -58 -26 -77 -22 -22 -22 -24 -5 -28 16 -4 19
-15 20 -64 1 -53 2 -55 10 -25 5 18 8 81 6 140 -1 59 -4 83 -5 54z"/>
<path d="M406 2374 c-3 -8 -10 -12 -16 -9 -6 4 -9 -2 -7 -14 3 -22 17 -41 17
-23 0 6 16 16 35 23 35 13 38 16 20 19 -5 1 -17 6 -27 11 -11 6 -18 4 -22 -7z"/>
<path d="M50 2372 c0 -4 -10 -12 -22 -17 -12 -6 -24 -17 -26 -25 -4 -12 -1
-11 15 3 11 9 24 17 30 17 6 0 16 7 23 15 10 12 10 15 -4 15 -9 0 -16 -3 -16
-8z"/>
<path d="M620 2364 c0 -6 6 -17 14 -23 7 -6 12 -24 10 -41 -3 -22 2 -32 17
-40 18 -10 19 -9 12 17 -3 15 -6 36 -5 46 0 10 -7 21 -16 24 -9 4 -20 11 -24
17 -5 8 -8 8 -8 0z"/>
<path d="M2904 2351 c4 -5 0 -12 -6 -15 -11 -5 -11 -7 0 -12 6 -3 10 -10 6
-15 -3 -5 5 -9 18 -8 13 0 17 3 11 6 -16 6 -17 33 -2 33 5 0 7 5 4 10 -3 6
-13 10 -21 10 -8 0 -13 -4 -10 -9z"/>
<path d="M130 2322 c-12 -14 -12 -15 7 -10 11 3 28 1 37 -4 18 -10 76 -1 76
12 0 4 -9 10 -20 13 -13 3 -20 0 -20 -9 0 -17 -12 -18 -28 -2 -17 17 -35 17
-52 0z"/>
<path d="M508 2319 c-4 -30 -55 -60 -67 -41 -6 10 -10 10 -20 -1 -10 -12 -4
-17 38 -27 27 -6 58 -20 70 -31 22 -20 19 -49 -6 -49 -8 0 -11 -5 -7 -12 5 -8
2 -9 -9 -5 -14 5 -16 2 -11 -17 3 -13 1 -27 -6 -31 -8 -5 -6 -11 7 -21 24 -18
34 -17 27 1 -10 24 2 18 41 -22 35 -36 53 -39 41 -8 -3 9 -10 14 -14 11 -12
-7 -42 31 -42 54 0 11 -4 20 -10 20 -17 0 1 27 26 39 20 9 30 8 50 -5 24 -16
24 -16 15 7 -4 13 -10 22 -13 19 -3 -3 -12 1 -21 9 -15 12 -17 11 -17 -2 0
-28 -31 -7 -37 25 -3 16 -8 26 -11 23 -7 -7 -32 15 -32 27 0 6 6 6 14 -1 12
-10 14 -7 12 18 -3 38 -13 50 -18 20z"/>
<path d="M2758 2318 c3 -12 14 -18 33 -18 16 0 29 -4 29 -10 0 -5 7 -10 16
-10 12 0 10 5 -9 20 -14 11 -30 20 -36 20 -6 0 -11 4 -11 8 0 5 -6 9 -14 9 -8
0 -11 -8 -8 -19z"/>
<path d="M60 2285 c-6 -7 -19 -11 -28 -8 -14 4 -14 3 -3 -5 8 -6 11 -17 8 -26
-4 -10 -1 -16 7 -16 15 0 46 32 46 48 0 18 -17 23 -30 7z"/>
<path d="M2801 2248 c30 -44 70 -81 77 -73 4 4 -3 14 -14 23 -11 9 -31 32 -43
50 -12 17 -27 32 -32 32 -6 0 0 -15 12 -32z"/>
<path d="M1560 2244 c-6 -14 -15 -46 -22 -71 -8 -35 -19 -50 -45 -66 -22 -12
-31 -23 -25 -29 12 -12 39 1 65 30 21 23 60 162 46 162 -5 0 -14 -12 -19 -26z"/>
<path d="M1460 2250 c0 -5 11 -10 25 -10 14 0 25 -1 25 -3 0 -2 -7 -25 -16
-50 -12 -35 -22 -49 -40 -53 -25 -6 -31 -18 -15 -28 18 -11 68 43 80 86 7 24
15 49 17 56 4 8 -6 12 -35 12 -23 0 -41 -4 -41 -10z"/>
<path d="M401 2240 c-8 -4 -11 -15 -8 -24 8 -20 -28 -58 -50 -54 -9 2 -18 10
-20 18 -4 13 -3 13 6 0 14 -20 20 -10 10 18 -5 12 -15 22 -23 22 -9 0 -13 -6
-10 -14 3 -8 1 -17 -5 -21 -6 -3 -11 2 -11 13 0 11 -7 25 -15 32 -9 8 -15 9
-15 2 0 -6 5 -14 10 -17 6 -3 10 -15 10 -26 0 -10 5 -19 10 -19 6 0 9 -6 8
-12 -4 -17 59 -23 87 -8 18 10 42 17 68 19 4 1 7 6 7 12 0 5 -5 7 -11 3 -6 -3
-15 0 -20 7 -6 10 -9 11 -9 2 0 -7 -4 -13 -8 -13 -12 0 -10 44 2 52 15 10 3
18 -13 8z"/>
<path d="M1161 2108 c-16 -96 -24 -164 -18 -158 7 7 39 211 34 217 -3 2 -10
-24 -16 -59z"/>
<path d="M2730 2149 c0 -6 -7 -8 -17 -5 -15 6 -14 4 2 -14 16 -18 21 -19 33
-6 8 8 11 19 8 25 -9 14 -26 14 -26 0z"/>
<path d="M215 2140 c-4 -6 -10 -8 -15 -5 -5 3 -11 1 -15 -5 -3 -5 0 -10 8 -10
7 0 26 -14 41 -31 29 -32 62 -99 49 -99 -4 0 -2 -5 4 -11 8 -8 6 -16 -6 -28
-19 -19 -51 -24 -51 -9 0 5 -4 7 -9 3 -5 -3 -12 -1 -16 5 -3 5 -14 10 -23 9
-11 0 -12 -3 -4 -6 6 -2 12 -10 12 -18 0 -7 8 -19 17 -26 11 -10 14 -10 9 -1
-5 8 1 12 18 12 14 0 26 -6 26 -12 0 -10 3 -9 9 1 5 7 14 10 20 7 6 -4 9 -12
5 -17 -6 -10 69 -6 99 6 12 5 17 2 17 -9 0 -20 17 -20 53 -1 15 8 25 10 22 5
-3 -6 1 -7 10 -3 13 4 15 13 10 37 -4 17 -7 37 -8 44 -1 20 -17 14 -17 -7 0
-26 -19 -37 -33 -21 -9 10 -8 12 6 7 9 -4 17 -3 17 1 -1 13 -27 42 -33 36 -3
-3 -3 5 1 18 5 18 7 19 10 5 2 -9 8 -14 14 -11 7 5 8 2 3 -7 -7 -12 -6 -12 6
-1 12 12 9 18 -19 41 -19 17 -30 34 -27 42 4 10 -2 15 -16 16 -12 1 -25 7 -30
14 -5 8 -10 6 -18 -8 -6 -12 -22 -24 -37 -27 -31 -8 -25 -19 10 -21 16 0 27 6
29 17 3 12 11 15 27 11 12 -3 17 -9 12 -12 -5 -3 -9 -15 -8 -26 3 -31 52 -125
61 -117 5 4 5 1 1 -6 -8 -13 -39 -2 -51 18 -4 6 -10 8 -15 5 -5 -3 -16 7 -24
22 -8 15 -15 22 -16 15 0 -7 5 -23 11 -34 9 -16 8 -23 -2 -29 -19 -12 -22 -11
-43 4 -15 11 -16 19 -8 50 6 22 7 37 1 37 -5 0 -9 9 -9 19 0 11 -9 26 -20 34
-11 8 -18 16 -15 19 3 3 -1 11 -10 18 -8 7 -15 21 -15 31 0 20 -15 25 -25 9z"/>
<path d="M605 2090 c13 -45 39 -94 43 -81 7 20 -6 56 -29 82 l-21 24 7 -25z"/>
<path d="M2470 2060 c11 -11 20 -24 20 -29 0 -5 7 -11 14 -14 19 -8 10 19 -16
45 -10 10 -22 18 -28 18 -5 0 -1 -9 10 -20z"/>
<path d="M151 2043 c-6 -10 -11 -14 -11 -9 0 5 -7 3 -15 -4 -12 -10 -15 -10
-15 0 0 8 -2 11 -5 8 -9 -8 6 -38 16 -33 4 3 17 -3 29 -15 29 -29 50 -26 44 8
-3 15 -9 28 -14 30 -5 2 -6 10 -3 18 7 20 -14 17 -26 -3z"/>
<path d="M2700 1973 c0 -3 11 -16 25 -28 18 -18 26 -20 34 -11 8 9 1 17 -24
29 -19 9 -35 14 -35 10z"/>
<path d="M69 1948 c-1 -7 -1 -16 -1 -19 1 -4 -7 -5 -18 -2 -11 3 -17 10 -13
16 3 6 1 7 -6 3 -17 -11 5 -36 30 -36 22 0 24 -12 8 -42 -13 -23 -4 -37 13
-20 15 15 58 16 58 1 0 -5 5 -7 10 -4 6 3 10 11 10 16 0 6 -4 7 -10 4 -6 -4
-8 5 -6 22 2 15 1 20 -1 10 -2 -9 -9 -14 -15 -11 -7 5 -8 2 -3 -7 7 -12 6 -12
-7 -1 -9 8 -14 20 -11 28 4 10 0 12 -13 7 -12 -4 -15 -3 -10 5 4 7 3 12 -3 12
-6 0 -8 7 -5 15 4 8 3 15 0 15 -3 0 -7 -6 -7 -12z"/>
<path d="M736 1941 c-10 -11 -18 -26 -20 -33 -1 -8 -15 -32 -32 -54 -30 -39
-47 -72 -99 -194 -15 -36 -33 -77 -41 -92 -17 -31 -17 -38 -4 -38 5 0 12 11
16 25 3 14 10 23 15 20 4 -3 14 14 20 37 7 24 16 47 21 53 4 5 8 15 8 22 0 8
8 22 18 33 9 10 26 42 37 70 22 57 59 105 75 95 6 -3 10 2 10 12 0 10 3 28 6
41 8 27 -7 29 -30 3z"/>
<path d="M2556 1942 c-6 -10 62 -42 88 -42 8 0 16 -9 19 -21 4 -16 12 -20 33
-17 15 2 30 9 32 17 3 8 0 11 -6 7 -5 -3 -27 2 -49 13 -21 10 -51 25 -68 32
-16 7 -33 15 -37 17 -3 2 -9 -1 -12 -6z"/>
<path d="M2790 1942 c0 -4 14 -16 30 -25 35 -21 40 -13 8 14 -25 20 -38 24
-38 11z"/>
<path d="M800 1921 c0 -12 6 -21 16 -21 9 0 14 7 12 17 -5 25 -28 28 -28 4z"/>
<path d="M1103 1893 c3 -16 -2 -44 -10 -63 -8 -19 -17 -46 -19 -60 -7 -34 -29
-67 -55 -81 -52 -27 -82 -88 -91 -184 -2 -16 -7 -33 -11 -36 -5 -3 -1 -24 8
-45 19 -44 27 -71 28 -97 1 -10 7 -15 15 -12 10 3 12 -3 10 -22 -4 -37 -28
-40 -69 -7 l-34 26 31 -30 c17 -16 37 -31 44 -34 10 -3 9 -17 -5 -63 -23 -79
-28 -272 -11 -443 13 -128 8 -220 -14 -247 -4 -5 -13 -28 -20 -50 -7 -22 -19
-49 -26 -59 -16 -24 -11 -53 24 -126 14 -30 25 -58 24 -62 -3 -11 63 -58 82
-58 9 0 27 -6 39 -14 12 -8 65 -24 117 -36 52 -12 106 -26 120 -31 14 -4 67
-11 118 -15 76 -5 95 -10 107 -26 16 -24 35 -15 35 17 0 21 -5 24 -57 29 -207
21 -480 92 -515 134 -22 25 -53 82 -66 121 -10 28 -9 38 3 57 8 13 15 28 15
34 0 7 14 46 31 88 l31 77 -11 130 c-6 72 -13 153 -16 180 -2 28 0 109 4 182
8 114 13 137 35 176 l26 44 -28 36 c-23 28 -30 50 -35 101 -7 74 5 161 27 205
22 41 33 45 40 16 9 -35 49 -34 64 0 19 42 15 61 -7 34 -18 -22 -20 -22 -26
-6 -8 19 10 47 31 47 18 0 23 10 34 70 11 56 4 130 -12 130 -6 0 -8 -12 -5
-27z"/>
<path d="M1010 1894 c-8 -9 -9 -18 -1 -31 10 -17 10 -16 11 4 0 15 7 23 23 25
l22 3 -22 7 c-13 3 -27 1 -33 -8z"/>
<path d="M560 1879 c0 -16 -3 -19 -13 -11 -7 6 -18 7 -25 3 -15 -9 62 -55 81
-48 7 3 5 6 -5 6 -11 1 -15 8 -14 24 2 12 -3 28 -11 35 -11 10 -13 9 -13 -9z"/>
<path d="M1367 1870 c-22 -18 -27 -19 -27 -6 0 9 -8 16 -20 16 -18 0 -19 -9
-22 -180 l-3 -180 28 0 c27 0 27 1 27 67 0 65 0 66 20 48 23 -21 74 -22 97 -3
43 35 54 118 24 183 -31 69 -79 90 -124 55z m56 -57 c22 -26 30 -83 14 -113
-9 -18 -21 -25 -42 -25 -26 0 -32 5 -43 39 -17 54 -1 116 32 116 13 0 30 -8
39 -17z"/>
<path d="M1179 1859 c-32 -32 -49 -82 -49 -144 0 -47 4 -60 26 -81 19 -20 31
-24 52 -20 29 7 62 40 62 61 0 25 -33 27 -51 4 -22 -30 -49 -19 -49 21 0 30 0
30 56 30 l57 0 -7 57 c-10 87 -51 118 -97 72z m59 -62 c3 -25 1 -27 -33 -27
l-36 0 16 31 c20 37 49 36 53 -4z"/>
<path d="M1813 1850 c-12 -32 -11 -119 1 -180 12 -57 19 -96 20 -111 0 -9 6
-15 13 -12 7 3 13 6 13 7 0 1 -5 29 -11 62 -6 32 -14 106 -18 164 -6 99 -7
103 -18 70z"/>
<path d="M826 1844 c-3 -8 -8 -75 -10 -147 -4 -137 4 -104 20 81 6 78 3 101
-10 66z"/>
<path d="M133 1803 c-20 -21 -39 -37 -42 -36 -4 1 -12 -6 -18 -16 -9 -14 -8
-18 3 -18 8 0 14 4 14 8 0 5 10 14 23 20 20 11 21 11 8 -5 -8 -9 -12 -19 -9
-22 7 -6 68 54 68 67 0 6 6 7 13 4 6 -4 4 0 -5 8 -10 8 -15 17 -11 20 3 4 3 7
-1 7 -4 0 -23 -17 -43 -37z"/>
<path d="M266 1825 c-8 -22 -8 -22 12 -22 55 1 83 -4 77 -13 -3 -5 -1 -10 5
-10 7 0 10 6 7 13 -2 6 3 20 12 31 15 18 15 18 -20 3 -24 -10 -41 -12 -52 -5
-10 5 -17 5 -17 1 0 -4 -4 -2 -9 5 -7 11 -10 10 -15 -3z"/>
<path d="M394 1771 c14 -15 15 -23 6 -40 -7 -14 -7 -21 0 -21 5 0 10 -6 10
-14 0 -12 10 -17 47 -26 4 -1 9 3 11 10 2 6 0 10 -5 9 -25 -4 -35 2 -30 21 3
11 1 20 -5 20 -5 0 -2 7 6 16 18 17 21 44 6 44 -5 0 -10 -4 -10 -10 0 -6 -10
-6 -27 1 -26 10 -27 10 -9 -10z"/>
<path d="M519 1789 c0 -2 -2 -26 -4 -54 -3 -45 -2 -48 10 -31 13 17 15 17 20
3 4 -8 13 -18 21 -21 12 -5 14 -1 9 15 -7 20 -54 96 -56 88z"/>
<path d="M2918 1762 c-7 -18 -18 -32 -25 -32 -7 0 -13 -4 -13 -10 0 -15 9 -12
37 10 14 11 20 20 13 20 -10 0 -10 3 0 15 7 9 10 18 6 22 -3 4 -12 -8 -18 -25z"/>
<path d="M227 1760 c3 -10 -2 -26 -11 -35 -9 -9 -16 -23 -16 -31 0 -9 -5 -12
-12 -8 -7 4 -8 3 -4 -5 4 -6 11 -9 16 -6 15 9 62 -20 115 -73 28 -27 56 -47
63 -45 16 6 16 23 -1 23 -7 0 -20 8 -28 18 -26 28 -56 50 -99 72 -41 21 -41
22 -26 45 18 27 21 51 7 59 -5 4 -7 -3 -4 -14z"/>
<path d="M2585 1751 c3 -26 1 -29 -25 -27 -16 1 -26 -2 -24 -9 3 -5 23 -11 47
-11 23 -1 36 1 30 3 -7 3 -13 20 -13 39 0 19 -4 34 -10 34 -5 0 -7 -13 -5 -29z"/>
<path d="M866 1742 c-24 -46 -30 -97 -13 -110 13 -11 14 -6 9 33 -4 37 0 52
17 76 12 16 17 29 12 29 -6 0 -17 -13 -25 -28z"/>
<path d="M2407 1754 c-11 -11 -8 -26 3 -19 6 3 10 0 10 -8 0 -7 10 -24 23 -37
12 -14 21 -28 20 -32 -2 -5 1 -8 6 -8 5 0 11 11 13 25 3 13 1 22 -3 19 -5 -3
-9 -1 -9 5 0 5 4 11 9 13 5 2 3 9 -5 16 -12 11 -14 9 -14 -10 0 -18 -2 -20 -9
-8 -6 8 -7 18 -4 24 3 5 1 6 -5 2 -6 -3 -15 1 -19 9 -5 9 -12 12 -16 9z"/>
<path d="M482 1677 c-5 -7 -12 -36 -14 -65 -5 -50 -4 -51 11 -30 9 13 16 25
17 28 0 3 4 13 7 23 15 38 15 46 2 51 -7 2 -18 -1 -23 -7z"/>
<path d="M2691 1638 c-14 -39 -8 -72 14 -76 19 -3 19 -2 2 8 -29 18 -3 42 30
29 31 -11 63 -3 63 17 0 18 -14 18 -32 1 -14 -14 -42 -11 -33 3 3 4 -4 6 -14
3 -16 -4 -19 -1 -14 16 7 28 -5 27 -16 -1z"/>
<path d="M2835 1633 c-3 -9 -3 -18 -1 -20 9 -9 47 9 44 19 -6 18 -36 18 -43 1z"/>
<path d="M2464 1624 c3 -8 2 -12 -4 -9 -6 3 -10 -1 -10 -9 0 -11 -9 -16 -26
-16 -22 0 -24 -3 -15 -14 10 -12 16 -12 42 1 29 14 34 14 76 -7 24 -12 47 -20
50 -16 3 3 -6 11 -21 17 -19 9 -23 15 -14 21 9 5 7 8 -7 8 -11 0 -26 9 -33 20
-15 24 -47 28 -38 4z"/>
<path d="M167 1598 c-3 -12 -2 -29 3 -37 8 -13 9 -12 10 6 0 12 3 28 6 37 3 9
2 16 -4 16 -5 0 -12 -10 -15 -22z"/>
<path d="M2209 1587 c15 -19 76 -23 86 -7 4 6 -6 10 -22 10 -15 0 -39 3 -53 7
-22 6 -24 5 -11 -10z"/>
<path d="M245 1544 c1 -23 6 -47 9 -53 13 -20 24 -11 22 18 0 16 -5 27 -10 24
-5 -4 -7 3 -4 15 4 12 2 20 -2 17 -5 -3 -10 1 -13 7 -3 7 -4 -6 -2 -28z"/>
<path d="M1895 1556 c-10 -7 -20 -21 -21 -31 -2 -15 2 -13 24 8 28 29 27 45
-3 23z"/>
<path d="M373 1536 c6 -16 -8 -21 -41 -17 -8 2 -13 -7 -12 -21 3 -38 1 -48
-13 -48 -24 0 -20 -76 5 -100 l22 -20 28 27 c35 34 63 40 47 11 -9 -17 -8 -18
9 -9 33 18 45 38 33 58 -8 14 -11 15 -12 3 -1 -8 -4 -2 -8 15 l-6 29 -39 -52
c-25 -35 -44 -51 -53 -48 -8 3 -18 6 -23 6 -18 0 -1 65 24 87 14 12 26 27 26
33 0 8 78 16 118 11 6 -1 12 3 12 8 0 15 -18 23 -25 11 -10 -16 -55 -8 -52 10
1 9 -7 16 -22 18 -18 3 -22 0 -18 -12z"/>
<path d="M2840 1540 c-19 -12 -12 -17 35 -24 29 -5 34 -4 20 3 -14 7 -16 10
-5 11 10 1 9 4 -5 10 -26 11 -27 11 -45 0z"/>
<path d="M167 1523 c9 -27 24 -43 39 -43 8 0 14 5 14 11 0 6 -7 9 -15 5 -8 -3
-16 -1 -16 4 -1 6 -2 15 -3 22 0 6 -7 13 -14 16 -8 2 -10 -2 -5 -15z"/>
<path d="M1926 1519 c-14 -11 -26 -24 -26 -29 0 -10 67 26 76 41 10 17 -23 9
-50 -12z"/>
<path d="M2497 1523 c-22 -6 -12 -23 14 -23 10 0 19 7 19 15 0 15 -2 16 -33 8z"/>
<path d="M2672 1513 c4 -24 25 -27 30 -5 4 12 -1 18 -14 19 -13 1 -18 -4 -16
-14z"/>
<path d="M2587 1497 c-18 -22 -14 -38 5 -19 7 7 25 12 40 12 15 0 28 5 28 11
0 6 -7 8 -16 5 -9 -4 -22 -2 -28 3 -8 6 -17 3 -29 -12z"/>
<path d="M2137 1482 c-51 -2 -73 -8 -87 -22 -16 -16 -17 -20 -5 -20 8 0 15 4
15 8 0 10 138 8 200 -2 l45 -8 -30 19 c-39 25 -57 29 -138 25z"/>
<path d="M2757 1468 c-4 -12 4 -17 32 -21 20 -3 46 -8 59 -12 15 -5 22 -3 22
5 0 7 -7 10 -15 6 -9 -3 -15 0 -15 10 0 11 -6 13 -20 9 -21 -7 -28 10 -7 18 6
3 -2 4 -20 4 -20 -1 -34 -8 -36 -19z"/>
<path d="M1930 1461 l-25 -7 28 -8 c31 -8 67 0 67 15 0 10 -33 10 -70 0z"/>
<path d="M1915 1391 c-13 -6 15 -9 85 -8 101 1 109 -1 189 -37 109 -48 131
-40 26 10 -74 35 -88 38 -180 41 -55 1 -109 -1 -120 -6z"/>
<path d="M2720 1380 c0 -6 8 -22 17 -36 14 -22 14 -27 2 -35 -24 -15 -52 -11
-45 7 3 8 -3 25 -14 36 -12 14 -20 17 -20 9 0 -11 -3 -11 -15 -1 -8 6 -20 10
-27 7 -8 -3 -2 -9 14 -17 15 -7 25 -17 21 -23 -3 -6 -1 -7 6 -3 6 4 14 0 18
-11 9 -26 24 -33 45 -22 10 6 23 7 28 4 13 -8 13 24 -1 64 -10 29 -29 43 -29
21z"/>
<path d="M2786 1375 c4 -8 10 -15 14 -15 5 0 12 -10 16 -22 7 -22 7 -22 14 -3
4 11 3 23 -4 27 -6 5 -7 8 -1 8 14 0 -17 20 -32 20 -7 0 -10 -7 -7 -15z"/>
<path d="M1923 1361 c-29 -4 -58 -13 -65 -20 -11 -11 -8 -12 17 -6 17 4 66 13
110 20 60 9 69 12 35 12 -25 0 -69 -3 -97 -6z"/>
<path d="M390 1329 c0 -5 4 -7 10 -4 5 3 12 -6 16 -21 5 -18 9 -22 15 -13 4 7
4 18 -1 25 -6 6 -7 14 -3 17 3 4 -3 7 -15 7 -12 0 -22 -5 -22 -11z"/>
<path d="M2870 1331 c0 -11 30 -36 30 -25 1 5 10 -8 21 -28 14 -28 26 -38 42
-37 l22 2 -22 4 c-15 3 -23 12 -23 24 0 10 -5 19 -11 19 -5 0 -7 5 -4 11 4 6
-2 13 -14 16 -12 3 -21 9 -21 14 0 5 -4 9 -10 9 -5 0 -10 -4 -10 -9z"/>
<path d="M60 1318 c0 -9 -3 -25 -7 -35 -6 -15 -4 -16 9 -6 8 7 18 10 21 6 13
-12 6 12 -8 31 -12 16 -15 17 -15 4z"/>
<path d="M1885 1316 c-16 -12 -13 -13 32 -9 31 3 53 1 57 -6 4 -6 15 -11 24
-11 9 0 0 9 -21 20 -43 24 -66 25 -92 6z"/>
<path d="M2415 1320 c4 -6 11 -8 16 -5 9 6 46 -24 42 -34 -2 -3 4 -6 12 -6 25
0 19 19 -11 37 -32 18 -69 24 -59 8z"/>
<path d="M2560 1300 c-6 -11 -16 -17 -25 -14 -8 4 -15 1 -15 -5 0 -6 7 -11 16
-11 8 0 12 -4 9 -10 -3 -5 -1 -10 4 -10 6 0 11 -8 11 -17 0 -12 3 -14 11 -6 8
8 8 17 0 31 -16 30 -15 32 29 26 28 -4 40 -2 40 7 0 7 -3 10 -6 6 -4 -3 -19 0
-35 8 -26 14 -29 14 -39 -5z"/>
<path d="M1920 1271 c25 -9 25 -9 -5 -11 -23 -2 -18 -4 20 -10 111 -18 336
-42 341 -37 6 6 -16 10 -131 25 -88 12 -22 14 78 3 37 -4 67 -4 67 0 0 10 -59
17 -205 24 -66 3 -136 8 -155 10 -30 4 -31 3 -10 -4z"/>
<path d="M291 1243 c-6 -16 -13 -48 -14 -73 -3 -33 -8 -44 -18 -41 -8 2 -22 3
-31 3 -18 -1 -20 21 -4 46 4 7 5 16 2 19 -9 10 -14 0 -21 -36 -8 -46 -11 -50
-35 -44 -19 5 -20 11 -15 70 4 61 4 64 -16 58 -11 -4 -26 -1 -34 5 -9 8 -15 8
-15 2 0 -6 -3 -17 -6 -26 -4 -11 -1 -16 10 -16 9 0 16 4 16 9 0 5 9 7 19 4 18
-5 22 -25 8 -39 -10 -11 -8 -67 3 -84 6 -10 10 -11 10 -2 0 6 5 12 10 12 6 0
9 -20 8 -47 -2 -30 1 -48 10 -50 8 -3 12 8 12 35 0 24 6 45 16 52 13 12 14 8
8 -40 -6 -42 -4 -51 6 -45 10 6 11 2 7 -17 -9 -36 24 -44 53 -13 l22 23 -31 7
c-39 8 -45 18 -37 60 5 25 11 32 21 28 22 -8 31 -53 14 -64 -10 -6 -8 -9 9 -9
22 0 23 2 18 83 -3 47 -2 71 3 57 5 -18 7 -7 7 37 -1 35 -2 63 -2 63 -1 0 -7
-12 -13 -27z"/>
<path d="M2405 1240 c-3 -5 3 -10 13 -10 28 0 34 -25 11 -46 -10 -9 -19 -21
-19 -26 0 -4 9 1 20 12 12 12 25 18 30 15 6 -4 10 -1 10 4 0 6 7 11 15 11 28
0 15 18 -25 34 -48 19 -47 19 -55 6z"/>
<path d="M354 1196 c-3 -13 -2 -32 4 -43 5 -10 8 -51 7 -90 0 -40 3 -73 7 -73
4 0 8 6 8 13 1 7 5 6 13 -5 12 -15 14 -15 25 2 9 15 8 19 -7 23 -17 4 -33 48
-31 87 3 58 1 73 -11 81 -10 6 -10 9 -1 9 6 0 12 5 12 10 0 20 -20 9 -26 -14z"/>
<path d="M53 1185 c-10 -10 -7 -14 11 -19 27 -7 52 -71 42 -110 -5 -20 -3 -24
9 -20 10 4 15 0 15 -12 0 -9 2 -15 5 -12 10 10 -34 152 -52 169 -15 15 -20 15
-30 4z"/>
<path d="M2520 1169 c-7 -12 -18 -18 -26 -15 -8 3 -20 -3 -26 -14 -7 -11 -19
-20 -26 -20 -7 0 -10 -4 -7 -10 11 -18 35 -11 35 11 0 15 4 19 16 15 9 -3 18
-6 22 -6 3 0 -5 -11 -18 -25 -17 -18 -30 -23 -49 -20 -20 4 -22 3 -7 -3 17 -8
17 -10 -10 -30 -16 -12 -24 -22 -18 -22 6 0 30 14 53 31 25 17 49 28 58 24 13
-4 13 -3 4 8 -8 11 -7 19 8 36 11 12 17 30 14 41 -7 25 -10 25 -23 -1z"/>
<path d="M398 1125 c-9 -19 -9 -28 0 -37 9 -9 12 -8 12 6 0 15 3 16 15 6 12
-10 15 -10 15 4 0 9 -7 16 -15 16 -9 0 -12 6 -9 15 10 25 -6 17 -18 -10z"/>
<path d="M2547 1098 c-3 -12 -1 -30 4 -40 5 -10 7 -22 5 -27 -3 -5 1 -11 9
-15 22 -8 27 10 12 41 -8 15 -13 36 -12 46 4 25 -12 21 -18 -5z"/>
<path d="M2639 1069 c16 -13 27 -16 31 -9 13 22 56 0 70 -36 22 -55 40 -37 24
23 -6 23 -12 25 -109 37 l-40 5 24 -20z"/>
<path d="M92 972 c-1 -31 1 -42 7 -33 5 8 7 20 4 28 -3 7 0 13 7 13 9 0 11
-11 7 -37 -6 -33 -5 -35 9 -21 14 13 14 19 1 50 -22 53 -34 53 -35 0z"/>
<path d="M144 971 c3 -18 6 -40 6 -47 0 -8 4 -14 10 -14 11 0 2 57 -12 80 -6
10 -8 4 -4 -19z"/>
<path d="M2565 989 c-4 -6 -5 -12 -3 -14 7 -7 48 7 48 16 0 13 -37 11 -45 -2z"/>
<path d="M466 964 c-5 -14 -9 -14 -23 -3 -15 12 -16 12 -10 -4 4 -10 3 -16 -2
-12 -15 8 -21 -9 -10 -25 8 -12 12 -12 16 -2 2 6 10 9 15 6 7 -4 8 -2 4 4 -4
7 -1 12 8 12 9 0 16 9 16 20 0 24 -6 26 -14 4z"/>
<path d="M2590 968 c-2 -5 -3 -12 -4 -17 0 -5 -4 -12 -8 -16 -4 -4 -4 -13 -1
-21 3 -8 -3 -21 -13 -29 -16 -12 -17 -16 -5 -24 10 -6 18 -5 25 4 6 7 20 15
31 18 19 5 19 5 -2 12 -13 4 -23 11 -23 16 0 12 7 11 33 -2 l22 -12 -21 24
c-12 13 -24 31 -27 39 -3 8 -6 12 -7 8z"/>
<path d="M205 933 c-4 -16 -2 -29 4 -31 5 -2 8 -9 5 -16 -5 -14 23 -15 44 -2
19 11 14 28 -7 21 -15 -4 -18 0 -17 21 1 37 -20 42 -29 7z"/>
<path d="M292 934 c-8 -8 -10 -23 -7 -35 9 -28 28 -9 23 24 -3 21 -5 23 -16
11z"/>
<path d="M496 913 c4 -16 11 -38 15 -51 12 -31 12 -32 -8 -26 -10 2 -9 0 4 -7
26 -14 32 -35 35 -119 1 -53 2 -57 5 -20 3 32 7 40 14 30 14 -23 1 43 -28 138
-14 45 -30 82 -35 82 -4 0 -5 -12 -2 -27z"/>
<path d="M2890 930 c0 -5 4 -10 8 -10 4 0 9 -13 10 -29 2 -23 -3 -31 -20 -37
l-23 -7 23 -8 c12 -5 22 -12 22 -17 0 -5 7 -9 15 -9 9 0 15 10 15 24 0 13 -4
23 -10 23 -5 0 -10 18 -10 40 0 29 -4 40 -15 40 -8 0 -15 -4 -15 -10z"/>
<path d="M2734 922 c4 -7 0 -12 -10 -12 -10 0 -14 -3 -11 -7 4 -3 -1 -12 -11
-20 -9 -8 -11 -12 -4 -8 15 8 16 -11 1 -20 -6 -4 -8 -13 -5 -21 3 -8 1 -14 -4
-14 -6 0 -10 -9 -10 -20 0 -17 2 -19 14 -8 7 7 13 24 12 38 -1 25 7 28 44 19
8 -2 18 -8 22 -14 9 -13 23 2 33 35 7 21 6 23 -7 13 -7 -7 -24 -11 -37 -10
-18 1 -21 6 -17 24 4 12 1 25 -6 29 -7 4 -8 3 -4 -4z"/>
<path d="M2976 905 c-3 -8 -1 -15 4 -15 5 0 11 -10 13 -22 3 -14 5 -9 6 15 1
37 -12 50 -23 22z"/>
<path d="M403 886 c-6 -8 -9 -17 -5 -22 4 -4 -2 -4 -13 0 -15 5 -17 4 -9 -4
15 -15 54 4 54 25 0 18 -11 19 -27 1z"/>
<path d="M166 850 c6 -20 4 -23 -7 -13 -22 17 -72 20 -77 4 -3 -10 0 -12 11
-8 18 7 33 -8 17 -18 -15 -9 -12 -25 4 -25 19 0 48 -29 41 -41 -4 -5 1 -9 10
-9 11 0 15 -5 11 -15 -8 -22 2 -18 15 6 8 15 8 19 0 15 -11 -7 -15 5 -12 31 1
8 -5 10 -13 7 -11 -4 -19 3 -26 21 -14 37 -13 39 15 21 23 -15 25 -15 25 1 0
10 -5 25 -11 33 -8 11 -9 9 -3 -10z"/>
<path d="M274 856 c-9 -24 3 -47 21 -40 19 8 19 21 0 40 -13 14 -16 14 -21 0z"/>
<path d="M2589 858 c-1 -7 -1 -16 0 -20 0 -5 -3 -8 -9 -8 -16 0 -12 -16 11
-41 l21 -24 -5 23 c-3 13 0 22 6 22 8 0 7 4 -2 9 -11 7 -10 11 5 21 18 11 18
11 0 6 -13 -5 -17 -2 -12 9 3 8 1 15 -4 15 -6 0 -11 -6 -11 -12z"/>
<path d="M206 837 c3 -9 10 -17 15 -17 5 0 8 -3 8 -7 -3 -21 2 -33 16 -33 8 0
15 -4 15 -10 0 -5 -7 -10 -17 -10 -9 0 -14 -3 -10 -6 3 -4 14 -3 24 1 10 5 24
7 31 6 6 -1 12 5 12 14 0 8 0 18 0 23 0 4 -3 7 -7 7 -20 2 -60 19 -76 33 -16
15 -17 14 -11 -1z"/>
<path d="M374 819 c-3 -5 0 -9 6 -9 6 0 8 -6 4 -12 -4 -7 -4 -10 1 -6 4 4 16
3 26 -3 20 -10 27 5 11 26 -9 13 -41 15 -48 4z"/>
<path d="M2437 823 c-9 -15 2 -43 17 -43 6 0 3 -5 -7 -11 -13 -7 -26 -6 -49 5
-17 9 -38 16 -47 15 -9 0 -4 -5 12 -11 15 -5 27 -14 27 -19 0 -6 5 -7 10 -4 6
3 10 2 10 -3 0 -5 16 -17 35 -26 20 -10 33 -20 31 -25 -3 -4 0 -13 6 -21 8
-12 9 -12 4 2 -3 10 1 18 12 21 16 4 16 5 0 6 -11 1 -15 6 -12 16 4 10 0 15
-15 15 -12 0 -21 5 -21 10 0 6 6 10 14 10 17 0 15 20 -5 50 -10 15 -18 20 -22
13z"/>
<path d="M449 815 c-1 -10 -4 -23 -9 -40 -1 -5 -3 -17 -4 -25 -1 -10 -11 -15
-28 -14 -16 1 -28 -3 -28 -9 0 -5 -9 -7 -20 -4 -17 4 -20 0 -20 -27 0 -18 6
-40 13 -49 11 -16 12 -15 13 8 1 14 -2 25 -7 25 -5 0 -9 7 -9 15 0 12 9 15 36
13 31 -2 38 -8 55 -43 19 -38 38 -132 22 -109 -5 7 -26 20 -48 30 -22 10 -43
20 -47 22 -5 2 -8 -1 -8 -7 0 -6 15 -18 33 -27 17 -9 44 -29 58 -45 16 -17 33
-27 41 -24 21 8 5 93 -30 159 -15 28 -28 54 -30 59 -2 4 5 7 15 7 14 0 24 -18
43 -79 24 -75 40 -95 40 -49 0 27 -22 90 -35 101 -6 5 -3 7 7 4 21 -7 31 28
12 44 -12 10 -13 9 -8 -5 3 -9 3 -16 -1 -16 -14 0 -46 44 -41 55 2 7 0 18 -5
26 -5 8 -9 10 -10 4z"/>
<path d="M1799 798 c-6 -49 -5 -87 2 -83 4 3 10 -1 13 -7 3 -7 3 1 0 17 -4 17
-6 42 -5 58 1 26 -8 39 -10 15z"/>
<path d="M2944 775 c11 -8 15 -15 9 -15 -16 0 -9 -32 10 -44 12 -8 20 -7 29 2
9 9 9 12 -4 12 -9 0 -18 12 -21 30 -5 20 -12 30 -24 30 -17 -1 -16 -2 1 -15z"/>
<path d="M2132 733 c-6 -21 -14 -48 -17 -60 -4 -13 -11 -23 -16 -23 -5 0 -9
-11 -9 -25 0 -14 -5 -25 -11 -25 -6 0 -8 -7 -5 -15 3 -9 -1 -18 -9 -21 -8 -4
-12 -10 -9 -15 3 -6 0 -16 -6 -24 -7 -8 -9 -15 -4 -15 4 0 0 -6 -11 -13 -10
-8 -15 -19 -11 -25 10 -16 33 -15 33 1 0 6 9 32 20 57 24 52 67 172 77 213 10
41 -9 32 -22 -10z"/>
<path d="M2322 724 c3 -41 11 -50 28 -29 10 12 9 15 -4 15 -24 0 -19 29 7 40
21 8 21 9 -6 9 -26 1 -27 -2 -25 -35z"/>
<path d="M2220 728 c0 -24 15 -37 30 -28 11 7 11 11 1 24 -16 19 -31 21 -31 4z"/>
<path d="M108 723 c-30 -5 -39 -23 -12 -23 11 0 14 -5 10 -16 -6 -15 -4 -15
11 -3 29 23 44 51 26 48 -5 -1 -20 -4 -35 -6z"/>
<path d="M18 713 c14 -6 16 -33 2 -33 -5 0 -10 -15 -9 -32 1 -32 2 -31 17 14
8 26 22 49 31 51 9 3 0 5 -19 5 -19 0 -29 -2 -22 -5z"/>
<path d="M260 696 c0 -11 5 -28 11 -36 8 -12 10 -8 7 16 -3 22 0 30 8 27 7 -2
15 0 18 5 3 5 -6 10 -19 10 -19 0 -25 -6 -25 -22z"/>
<path d="M223 658 c4 -57 15 -86 24 -60 3 6 9 10 14 6 5 -3 9 -1 9 4 0 6 -7
13 -16 16 -10 4 -14 14 -11 25 2 10 -2 29 -10 42 -13 22 -14 20 -10 -33z"/>
<path d="M2359 684 c-11 -14 -10 -18 6 -30 12 -9 21 -11 23 -4 2 5 11 10 19
10 10 0 14 -6 10 -20 -3 -11 -1 -20 4 -20 14 0 11 38 -3 47 -7 4 -20 8 -28 8
-8 0 -14 6 -12 13 3 16 -3 15 -19 -4z"/>
<path d="M300 662 c-8 -15 -14 -37 -12 -49 3 -18 10 -23 35 -23 18 0 28 4 22
8 -10 7 -12 13 -24 64 l-6 28 -15 -28z"/>
<path d="M1782 668 c-7 -7 -12 -22 -12 -35 0 -13 -11 -56 -25 -95 -14 -39 -25
-79 -24 -87 0 -9 9 8 20 38 10 29 24 60 30 68 7 8 12 30 11 50 -1 19 3 44 9
54 11 22 8 24 -9 7z"/>
<path d="M2263 673 c20 -5 22 -14 5 -31 -9 -9 -9 -12 3 -13 7 -1 18 -1 23 0 4
1 14 -3 21 -9 7 -6 21 -7 35 -2 21 8 19 11 -28 35 -29 15 -57 26 -64 26 -7 -1
-5 -3 5 -6z"/>
<path d="M2618 655 c2 -14 11 -25 18 -25 13 0 19 -13 14 -35 -1 -5 7 -2 17 7
10 9 30 14 46 12 34 -3 95 30 77 41 -7 5 -16 2 -21 -6 -5 -10 -24 -15 -56 -14
-39 1 -48 4 -47 18 2 14 -1 15 -12 6 -11 -9 -15 -8 -20 5 -10 25 -22 19 -16
-9z"/>
<path d="M171 643 c-1 -7 -8 -13 -16 -13 -8 0 -15 -7 -15 -17 0 -9 3 -13 6
-10 4 3 16 1 27 -4 16 -9 17 -13 6 -21 -12 -8 -11 -9 1 -5 9 2 16 18 18 43 2
26 0 34 -7 25 -7 -11 -9 -11 -14 0 -4 10 -6 10 -6 2z"/>
<path d="M2480 637 c0 -9 5 -17 11 -17 5 0 8 -4 4 -9 -3 -5 4 -13 16 -16 13
-4 25 -2 29 5 5 9 9 9 14 1 4 -6 4 -15 1 -21 -9 -15 4 -12 21 5 12 12 12 15 2
15 -10 0 -9 3 2 11 11 8 7 9 -20 6 -26 -4 -41 1 -57 16 -20 18 -23 18 -23 4z"/>
<path d="M57 623 c-14 -14 -6 -33 14 -33 17 0 19 3 10 13 -6 8 -8 17 -4 20 3
4 2 7 -4 7 -5 0 -13 -3 -16 -7z"/>
<path d="M550 550 c0 -45 -5 -90 -11 -101 -7 -15 -7 -24 1 -34 15 -19 9 -131
-7 -128 -15 3 -17 -13 -3 -22 6 -3 10 -11 10 -16 0 -6 -4 -8 -9 -5 -10 7 -17
-17 -27 -93 -6 -44 -4 -53 7 -49 9 3 13 19 12 46 -1 28 3 40 9 35 6 -3 8 -1 5
4 -4 6 0 27 8 46 8 19 11 37 8 40 -3 4 -1 12 5 19 11 14 10 84 -2 129 -5 16
-3 29 3 33 14 9 15 163 1 171 -6 4 -10 -23 -10 -75z"/>
<path d="M248 568 c-14 -17 -15 -24 -6 -30 16 -9 31 5 35 32 4 26 -8 25 -29
-2z"/>
<path d="M2720 581 c0 -6 -10 -10 -22 -8 -19 2 -22 -2 -20 -22 3 -16 0 -21 -9
-15 -9 5 -10 2 -6 -11 6 -14 3 -17 -18 -13 -20 4 -23 2 -15 -8 10 -11 51 -10
71 2 4 2 5 14 3 27 -5 22 -5 22 5 0 5 -12 19 -24 31 -28 15 -5 18 -10 11 -19
-8 -9 -2 -12 24 -13 19 -1 35 3 35 8 0 5 -6 8 -12 7 -7 -2 -12 2 -11 9 3 16
-34 36 -49 27 -7 -5 -9 3 -6 25 3 18 1 34 -4 37 -4 3 -8 0 -8 -5z"/>
<path d="M156 536 c-4 -17 -2 -34 5 -42 10 -13 15 -12 30 5 21 22 27 43 7 23
-13 -13 -32 -17 -25 -4 3 4 1 16 -3 27 -6 17 -8 16 -14 -9z"/>
<path d="M2386 544 c-3 -8 -1 -14 3 -14 13 0 21 -27 15 -45 -4 -8 -15 -15 -26
-15 -14 0 -18 5 -13 19 8 25 -23 37 -44 16 -14 -13 -13 -15 7 -15 15 0 22 -6
22 -20 0 -17 6 -20 34 -18 26 1 32 6 28 20 -3 12 4 21 24 30 27 11 27 12 7 15
-13 3 -20 10 -17 17 3 8 -4 16 -15 19 -12 3 -22 -1 -25 -9z"/>
<path d="M67 543 c-18 -18 -3 -83 20 -83 8 0 12 4 9 9 -4 5 -1 11 6 13 6 2 9
12 5 21 -4 11 -12 14 -23 10 -14 -5 -16 -2 -12 15 6 23 5 26 -5 15z"/>
<path d="M2496 535 c-8 -22 -8 -22 9 -29 18 -7 45 3 45 16 0 6 -7 8 -15 4 -8
-3 -18 2 -23 11 -8 14 -10 13 -16 -2z"/>
<path d="M297 503 c3 -18 1 -39 -5 -46 -15 -18 27 -71 47 -58 11 7 8 20 -17
72 -23 48 -29 56 -25 32z"/>
<path d="M2580 492 c0 -34 14 -43 24 -15 4 9 0 23 -9 32 -13 14 -15 12 -15
-17z"/>
<path d="M404 484 c3 -9 6 -22 6 -30 0 -10 12 -14 38 -14 21 0 43 -5 49 -11 8
-8 11 1 11 30 l1 41 -25 -16 c-13 -9 -24 -20 -24 -25 0 -16 -28 2 -33 22 -3
10 -11 19 -17 19 -7 0 -10 -7 -6 -16z"/>
<path d="M2274 443 c-7 -36 -14 -47 -31 -49 -35 -6 -38 16 -7 43 22 18 25 26
15 32 -26 17 -51 0 -51 -33 0 -17 -3 -61 -7 -98 -4 -50 -3 -68 6 -68 7 0 10 4
7 8 -6 9 47 7 63 -3 12 -7 71 24 71 37 0 4 -22 8 -49 8 -32 0 -55 6 -65 16
-22 22 -20 24 14 18 19 -4 30 -2 30 5 0 6 9 11 20 11 11 0 20 5 20 10 0 6 -7
10 -15 10 -8 0 -15 8 -15 18 0 29 64 29 84 0 9 -12 19 -18 23 -14 5 5 2 11 -4
13 -7 3 -13 11 -13 18 0 17 -22 25 -49 18 -12 -3 -22 0 -22 6 -3 25 -4 30 -10
35 -3 3 -10 -15 -15 -41z"/>
<path d="M123 468 c-21 -27 -22 -36 -6 -34 17 1 35 -46 34 -91 -1 -13 4 -23
10 -23 7 0 9 14 6 38 -12 79 -12 85 3 90 12 4 13 3 3 -10 -15 -17 -8 -29 12
-22 10 4 12 -1 9 -18 -4 -22 -4 -22 6 2 10 22 8 28 -20 53 -34 30 -43 33 -57
15z"/>
<path d="M2511 441 c-11 -11 -22 -17 -24 -14 -3 2 -3 -21 0 -53 4 -40 2 -55
-6 -50 -7 5 -8 0 -3 -15 5 -12 19 -26 32 -31 18 -7 21 -6 12 4 -13 16 3 32 37
36 15 2 21 0 17 -7 -4 -6 -1 -11 7 -11 8 0 18 7 21 16 9 22 8 24 -9 18 -10 -4
-15 0 -15 12 0 15 -2 16 -9 5 -8 -12 -12 -12 -25 -2 -9 7 -13 18 -9 25 4 6 -1
5 -10 -3 -15 -12 -17 -11 -17 2 0 9 8 21 18 26 16 10 16 10 -1 11 -17 0 -17 1
-3 16 9 8 20 12 26 9 5 -3 10 1 10 9 0 22 -26 20 -49 -3z"/>
<path d="M2016 434 c-3 -8 -9 -13 -13 -11 -5 3 -9 -11 -10 -32 l-2 -36 25 40
c13 22 24 43 24 48 0 13 -18 7 -24 -9z"/>
<path d="M2580 436 c0 -14 37 -32 46 -23 6 6 -25 37 -37 37 -5 0 -9 -6 -9 -14z"/>
<path d="M2826 426 c7 -19 32 -28 40 -15 7 12 5 15 -23 23 -18 6 -22 4 -17 -8z"/>
<path d="M262 423 c-17 -7 14 -43 36 -43 13 0 13 3 -1 18 -10 10 -14 22 -10
25 7 8 -6 8 -25 0z"/>
<path d="M1688 383 c-15 -41 -15 -49 -2 -67 14 -20 14 -20 14 4 1 14 7 36 14
49 13 23 11 61 -3 61 -3 0 -14 -21 -23 -47z"/>
<path d="M224 384 c2 -21 4 -47 5 -56 1 -10 6 -18 12 -18 7 0 8 16 4 48 -8 58
-25 81 -21 26z"/>
<path d="M98 403 c-15 -4 -33 -32 -25 -40 9 -9 42 14 43 30 1 9 1 16 0 16 0
-1 -8 -3 -18 -6z"/>
<path d="M16 384 c-10 -27 -7 -44 9 -44 19 0 33 32 17 38 -7 2 -10 8 -6 13 3
5 1 9 -4 9 -6 0 -13 -7 -16 -16z"/>
<path d="M1735 375 c-46 -45 -20 -155 36 -155 10 0 19 -5 19 -10 0 -11 30 -10
40 0 17 17 48 27 61 19 18 -9 59 -1 59 12 0 5 13 6 29 3 27 -6 29 -4 36 36 6
34 4 44 -12 55 -16 13 -20 12 -35 -6 -12 -14 -24 -18 -38 -14 -11 4 -20 2 -20
-4 0 -10 20 -15 48 -12 6 1 12 -3 12 -9 0 -10 -81 -53 -87 -46 -2 1 2 17 7 35
11 40 0 72 -36 100 -37 29 -88 28 -119 -4z m120 -39 c34 -44 30 -74 -13 -99
-41 -24 -73 -13 -97 33 -30 57 -8 99 52 100 25 0 38 -8 58 -34z"/>
<path d="M2826 364 c-11 -8 -28 -12 -38 -8 -12 4 -18 0 -18 -11 0 -9 5 -13 11
-9 6 3 15 0 20 -7 7 -11 9 -10 9 5 0 11 3 17 6 13 4 -3 13 1 21 9 21 20 13 26
-11 8z"/>
<path d="M187 350 c-3 -14 -3 -26 2 -28 5 -2 7 -12 4 -22 -3 -11 0 -20 6 -20
6 0 8 7 4 17 -4 11 -3 14 5 9 14 -8 16 6 3 20 -5 5 -11 18 -13 29 -3 18 -5 17
-11 -5z"/>
<path d="M101 353 c-1 -7 -8 -10 -16 -7 -17 7 -21 -21 -5 -31 6 -3 10 -1 10 5
0 6 4 9 9 5 5 -3 12 -1 16 5 4 6 11 7 17 4 7 -4 8 -2 4 5 -4 6 -11 9 -16 6 -4
-3 -11 1 -13 7 -4 10 -6 10 -6 1z"/>
<path d="M2714 331 c4 -6 1 -11 -9 -11 -9 0 -13 -5 -10 -11 4 -6 14 -8 22 -5
8 3 23 1 34 -4 29 -16 23 -7 -12 19 -18 13 -29 19 -25 12z"/>
<path d="M419 313 c-8 -76 -8 -97 1 -111 9 -16 9 -16 10 0 0 9 10 34 22 54 19
32 23 35 29 18 4 -10 8 -14 9 -9 1 6 3 18 5 28 2 9 -1 15 -6 11 -5 -3 -9 1 -9
8 0 8 -3 9 -8 3 -8 -12 -22 -13 -39 -2 -7 5 -13 5 -14 0z"/>
<path d="M122 293 c2 -10 11 -19 21 -21 16 -3 17 -1 7 17 -13 25 -33 28 -28 4z"/>
<path d="M310 293 c1 -16 28 -43 44 -43 19 0 21 -11 5 -27 -13 -13 -3 -36 12
-28 5 4 9 1 9 -4 0 -6 4 -11 9 -11 6 0 6 12 0 32 -5 17 -7 34 -4 36 6 7 -37
38 -47 34 -5 -1 -8 3 -8 8 0 6 -4 10 -10 10 -5 0 -10 -3 -10 -7z"/>
<path d="M244 279 c-15 -25 -11 -49 8 -49 19 0 24 25 9 49 -7 11 -10 11 -17 0z"/>
<path d="M1114 280 c-38 -15 -38 -30 0 -30 29 0 34 4 33 20 -1 22 -3 22 -33
10z"/>
<path d="M2295 264 c-13 -10 -34 -14 -60 -11 -39 4 -40 3 -41 -30 -1 -25 3
-33 16 -33 24 0 32 11 19 27 -6 7 -8 13 -3 14 50 6 82 4 77 -4 -4 -6 0 -8 10
-4 8 3 21 -1 27 -9 7 -8 17 -14 22 -14 5 0 22 -10 38 -22 21 -15 28 -27 24
-40 -3 -10 -1 -18 4 -18 5 0 12 11 14 24 4 19 -3 32 -28 53 -19 15 -34 36 -34
45 0 19 -15 24 -25 8 -4 -6 -11 -5 -19 3 -10 9 -11 14 -2 19 7 5 6 8 -4 8 -8
-1 -24 -8 -35 -16z"/>
<path d="M2438 242 c-24 -5 -22 -15 5 -27 12 -6 21 -16 20 -23 -5 -21 16 -13
28 11 11 19 11 21 -3 9 -11 -9 -18 -10 -23 -2 -3 5 -1 10 4 10 6 0 11 5 11 11
0 5 -4 8 -9 5 -5 -4 -11 -3 -13 2 -1 4 -11 6 -20 4z"/>
<path d="M152 226 c-17 -7 -38 -18 -44 -24 -8 -8 6 -6 35 5 26 9 47 21 47 25
0 4 -1 7 -2 7 -2 -1 -18 -7 -36 -13z"/>
<path d="M2900 226 c0 -9 3 -16 8 -17 41 -4 62 -3 62 3 0 8 -16 12 -34 9 -4
-1 -14 4 -22 10 -11 9 -14 8 -14 -5z"/>
<path d="M465 220 c-3 -6 -3 -20 0 -33 5 -17 4 -18 -4 -7 -11 16 -16 14 -25
-16 -4 -14 0 -27 14 -39 23 -20 25 -16 33 52 5 41 -5 64 -18 43z"/>
<path d="M2540 209 c0 -11 -4 -17 -10 -14 -6 3 -7 -1 -4 -9 7 -19 -12 -22 -20
-3 -2 6 -4 -7 -3 -30 2 -47 4 -50 21 -28 9 13 16 13 43 3 28 -10 35 -10 52 6
11 10 18 23 14 29 -3 5 -11 1 -17 -10 -11 -20 -23 -22 -63 -6 -20 7 -20 10 -7
28 15 19 16 19 29 1 13 -17 15 -17 37 4 l23 22 -23 -11 c-25 -13 -42 -7 -42
14 0 7 -7 15 -15 19 -10 4 -15 -1 -15 -15z"/>
<path d="M2695 188 c-4 -12 -6 -27 -6 -32 1 -5 -3 -12 -9 -16 -8 -5 -7 -9 4
-13 9 -4 16 -2 16 3 0 6 9 10 20 10 21 0 38 26 25 38 -4 4 -10 1 -12 -5 -3 -7
-9 -13 -15 -13 -6 0 -8 6 -5 13 3 8 2 19 -3 26 -5 9 -10 6 -15 -11z"/>
<path d="M142 175 c-10 -22 -9 -25 8 -25 15 0 20 7 20 25 0 32 -14 32 -28 0z"/>
<path d="M336 162 c-8 -23 15 -72 32 -72 5 0 23 -15 42 -33 24 -23 30 -26 21
-10 -6 12 -21 29 -33 37 -12 9 -19 16 -15 16 4 0 -1 9 -11 20 -9 11 -20 30
-23 43 l-5 22 -8 -23z"/>
<path d="M1565 150 c-16 -31 -20 -90 -6 -90 4 0 11 21 15 46 3 26 11 53 17 60
8 10 8 14 0 14 -6 0 -17 -13 -26 -30z"/>
<path d="M2172 144 c-20 -21 -27 -34 -18 -34 15 0 30 -45 21 -60 -4 -6 3 -10
15 -10 12 0 19 -3 17 -7 -3 -5 1 -14 9 -21 17 -15 19 0 4 29 -14 25 -4 24 34
-4 36 -28 86 -40 106 -26 12 7 9 9 -9 9 -31 0 -133 48 -126 59 2 5 -3 8 -13 7
-12 -1 -17 7 -17 29 -1 40 5 56 18 48 6 -3 7 -1 3 5 -9 15 -5 17 -44 -24z"/>
<path d="M2949 153 c-1 -5 -1 -11 0 -15 0 -4 -7 -5 -17 -1 -12 4 -14 3 -7 -5
19 -20 38 -18 40 6 1 19 -13 33 -16 15z"/>
<path d="M292 125 c-15 -34 0 -75 28 -75 17 0 20 -4 15 -20 -4 -11 -2 -20 4
-20 17 0 12 30 -13 88 -22 52 -23 52 -34 27z"/>
<path d="M2285 121 c-3 -2 -5 -11 -5 -20 0 -13 2 -13 9 -3 4 8 11 13 15 13 24
-3 48 0 42 7 -8 8 -54 11 -61 3z"/>
<path d="M2535 110 c4 -14 12 -31 17 -37 12 -15 42 -18 33 -3 -4 6 -11 8 -16
5 -5 -4 -9 -1 -9 4 0 6 5 11 10 11 6 0 10 5 10 11 0 5 -5 7 -12 3 -6 -4 -18 2
-26 12 -13 18 -14 18 -7 -6z"/>
<path d="M2095 113 c-16 -2 -53 -8 -81 -14 -50 -11 -52 -13 -61 -55 -8 -35 -8
-44 3 -44 8 0 14 9 14 20 0 23 28 38 108 55 48 10 52 10 52 -7 0 -10 4 -18 10
-18 5 0 7 7 3 16 -3 9 -1 19 5 23 17 11 -19 27 -53 24z"/>
<path d="M149 98 c-6 -19 -4 -50 4 -55 6 -3 7 -1 3 5 -9 16 7 15 22 0 9 -9 12
-8 12 5 0 9 -8 17 -17 18 -11 0 -13 3 -5 6 13 5 7 23 -9 23 -5 0 -9 -1 -10 -2z"/>
<path d="M2358 73 c6 -2 9 -10 5 -15 -4 -7 2 -9 15 -6 12 4 22 2 22 -3 0 -5
-5 -9 -11 -9 -5 0 -7 -5 -4 -10 10 -16 34 7 28 28 -2 11 -15 18 -36 19 -18 0
-26 -1 -19 -4z"/>
<path d="M380 30 c6 -11 17 -20 25 -20 7 0 20 -3 29 -6 9 -3 16 -1 16 5 0 6
-8 11 -19 11 -10 0 -24 7 -31 15 -18 22 -32 18 -20 -5z"/>
</g>
</svg>
